<?xml version="1.0" encoding="UTF-8" standalone="no"?>
<!-- Created with Inkscape (http://www.inkscape.org/) -->

<svg
   width="160mm"
   height="100mm"
   viewBox="0 0 160 100"
   version="1.1"
   id="svg3388"
   inkscape:version="1.1 (c68e22c387, 2021-05-23)"
   sodipodi:docname="deflec-estat-techo.svg"
   xmlns:inkscape="http://www.inkscape.org/namespaces/inkscape"
   xmlns:sodipodi="http://sodipodi.sourceforge.net/DTD/sodipodi-0.dtd"
   xmlns:xlink="http://www.w3.org/1999/xlink"
   xmlns="http://www.w3.org/2000/svg"
   xmlns:svg="http://www.w3.org/2000/svg">
  <sodipodi:namedview
     id="namedview3390"
     pagecolor="#ffffff"
     bordercolor="#666666"
     borderopacity="1.0"
     inkscape:pageshadow="2"
     inkscape:pageopacity="0.0"
     inkscape:pagecheckerboard="0"
     inkscape:document-units="mm"
     showgrid="false"
     inkscape:zoom="1.3416246"
     inkscape:cx="260.87775"
     inkscape:cy="284.35675"
     inkscape:window-width="1920"
     inkscape:window-height="1001"
     inkscape:window-x="-9"
     inkscape:window-y="-9"
     inkscape:window-maximized="1"
     inkscape:current-layer="layer1" />
  <defs
     id="defs3385">
    <linearGradient
       inkscape:collect="always"
       xlink:href="#linearGradient1879"
       id="linearGradient4220-1-6"
       gradientUnits="userSpaceOnUse"
       gradientTransform="matrix(0,-0.14789863,-16.344543,0,1773.3337,1.7051472)"
       x1="-135.54034"
       y1="104.68308"
       x2="-30.737953"
       y2="104.68308" />
    <linearGradient
       inkscape:collect="always"
       id="linearGradient1879">
      <stop
         style="stop-color:#000000;stop-opacity:1;"
         offset="0"
         id="stop1875" />
      <stop
         style="stop-color:#000000;stop-opacity:0;"
         offset="1"
         id="stop1877" />
    </linearGradient>
  </defs>
  <g
     inkscape:label="Layer 1"
     inkscape:groupmode="layer"
     id="layer1">
    <path
       inkscape:export-ydpi="300"
       inkscape:export-xdpi="300"
       inkscape:export-filename="C:\Users\mrmal\Desktop\Apunte Acústica\PNG\deflection.png"
       inkscape:connector-curvature="0"
       id="path3890-5-9-8-1-1-0"
       d="m 62.33676,21.729197 v 5.29167 c -1.32555,0.21105 -2.6021,0.55073 -3.64536,0.99213 -1.04323,0.4415 -1.84875,0.98402 -2.30158,1.5711 -0.45282,0.58707 -0.54957,1.21752 -0.27828,1.82223 0.27123,0.60475 0.91182,1.18229 1.82704,1.6715 0.91528,0.48921 2.10405,0.88864 3.39312,1.16329 1.28905,0.27479 2.67512,0.42353 3.95741,0.44753 1.28234,0.0231 2.45647,-0.0762 3.35351,-0.26418 0.897,-0.18796 1.51261,-0.46261 1.75956,-0.76183 0.24679,-0.29927 0.12212,-0.62176 -0.35386,-0.89868 -0.47611,-0.27665 -1.30422,-0.50665 -2.36276,-0.63418 -1.05856,-0.1275 -2.34566,-0.15101 -3.67413,-0.0467 -1.32853,0.10483 -2.69468,0.33944 -3.90096,0.69098 -1.20623,0.35146 -2.2481,0.82049 -2.97602,1.36046 -0.72794,0.53996 -1.13792,1.15014 -1.17262,1.76431 -0.0346,0.61419 0.30833,1.23096 0.977,1.7834 0.66879,0.55244 1.66329,1.03903 2.83814,1.412 1.17484,0.37315 2.52744,0.63098 3.86151,0.7597 1.33404,0.12885 2.6454,0.12747 3.74484,0.0184 1.0994,-0.10804 1.9824,-0.32326 2.52267,-0.59086 0.54024,-0.26784 0.73415,-0.58758 0.55574,-0.89062 -0.17844,-0.30296 -0.73078,-0.58792 -1.57518,-0.79135 -0.84442,-0.20368 -1.98001,-0.32436 -3.24119,-0.32236 -1.26111,0.002 -2.6447,0.12654 -3.95025,0.37778 -1.30552,0.25122 -2.52863,0.62988 -3.4932,1.10228 -0.96452,0.47242 -1.66611,1.03823 -2.00489,1.63751 -0.33879,0.59926 -0.31187,1.23082 0.0756,1.82538 0.38701,0.5946 1.13473,1.15069 2.13323,1.6104 0.99853,0.45952 2.24619,0.82155 3.56144,1.056 1.31524,0.23417 2.6945,0.34037 3.93824,0.32607 1.24371,-0.0139 2.3474,-0.15056 3.15241,-0.3644 0.80506,-0.21428 1.30733,-0.50606 1.436,-0.81109 0.12852,-0.30527 -0.11879,-0.62182 -0.70435,-0.88233 -0.58569,-0.26048 -1.50973,-0.46322 -2.63682,-0.55712 -1.12712,-0.0937 -2.45501,-0.0776 -3.79082,0.0688 -1.3358,0.14593 -2.67556,0.42211 -3.82572,0.81017 -1.15015,0.38795 -2.10622,0.88769 -2.73119,1.44848 -0.62501,0.5608 -0.91516,1.18187 -0.83046,1.79526 0.0847,0.61341 0.54614,1.21775 1.31552,1.74802 0.76938,0.53029 1.84616,0.98486 3.0731,1.32079 1.22695,0.33575 2.60121,0.55183 3.92346,0.63963 1.32228,0.0877 2.58834,0.0472 3.61559,-0.0942 1.02726,-0.14085 1.8113,-0.38146 2.24029,-0.66439 0.42899,-0.28264 0.49963,-0.60659 0.20378,-0.90231 -0.29587,-0.29557 -0.95959,-0.56182 -1.89309,-0.73787 -0.93348,-0.17595 -2.13548,-0.26045 -3.43098,-0.21935 -1.29547,0.0416 -2.681,0.20828 -3.95599,0.49959 -1.27503,0.29142 -2.43505,0.70646 -3.31317,1.20727 -0.87816,0.50081 -1.47019,1.08662 -1.69224,1.69453 -0.22195,0.60796 -0.0714,1.23672 0.42827,1.81764 0.49963,0.58086 1.3486,1.11235 2.42235,1.54009 1.0738,0.42767 2.3704,0.75034 3.70132,0.94394 1.33091,0.19357 2.69237,0.25766 3.88759,0.20506 1.1952,-0.0526 2.21959,-0.22076 2.92618,-0.45812 0.70661,-0.2374 1.09199,-0.54308 1.10099,-0.85025 0.0103,-0.3071 -0.35877,-0.61446 -1.04927,-0.8553 -0.69058,-0.24106 -1.70319,-0.41378 -2.88981,-0.47177 -1.18667,-0.0582 -2.54476,-1.2e-4 -3.87717,0.18703 -1.33246,0.18705 -2.6351,0.50414 -3.71998,0.92659 -1.08491,0.42256 -1.94756,0.95026 -2.46461,1.52866 -0.517,0.57844 -0.68502,1.20655 -0.4816,1.81552 0.20352,0.60897 0.77972,1.19729 1.64354,1.70233 0.86385,0.50507 2.01426,0.92533 3.28352,1.22271 1.26923,0.29741 2.65418,0.47077 3.9541,0.51817 1.29995,0.0476 2.51056,-0.0324 3.45743,-0.20367 0.94689,-0.17133 1.62574,-0.43457 1.94004,-0.7289 0.31443,-0.29418 0.26101,-0.61833 -0.15001,-0.90315 -0.4111,-0.28493 -1.18078,-0.52873 -2.19588,-0.67472 -1.01509,-0.14591 -2.27396,-0.1926 -3.59338,-0.11131 -1.31947,0.0813 -2.69589,0.29141 -3.93017,0.62125 -1.23427,0.32974 -2.32191,0.77984 -3.10666,1.30634 -0.78471,0.52647 -1.26249,1.12878 -1.36599,1.74172 -0.10368,0.61298 0.16947,1.2352 0.77784,1.799 0.60825,0.56385 1.55167,1.06765 2.69213,1.46123 1.14048,0.39347 2.47561,0.67551 3.81163,0.82801 1.33597,0.1524 2.66875,0.1746 3.80585,0.0863 1.13714,-0.0882 2.07407,-0.2868 2.67664,-0.5446 0.60253,-0.2577 0.86704,-0.57331 0.75713,-0.87894 -0.11008,-0.30575 -0.59593,-0.59971 -1.38584,-0.81768 -0.78988,-0.21798 -1.88295,-0.35836 -3.1197,-0.37915 -1.23672,-0.0231 -2.61414,0.0794 -3.93255,0.30757 -1.31846,0.22815 -2.57362,0.58444 -3.58453,1.03926 -1.01092,0.45489 -1.77326,1.00766 -2.17823,1.60033 -0.40501,0.5926 -0.44945,1.22402 -0.12904,1.82486 0.3205,0.60088 1.00704,1.16977 1.95847,1.64683 0.95137,0.47702 2.16622,0.86081 3.4676,1.11855 0.23655,0.0467 0.47607,0.0896 0.71703,0.12793 v 5.25649"
       style="fill:none;fill-opacity:1;fill-rule:evenodd;stroke:#000000;stroke-width:0.499999;stroke-linecap:round;stroke-linejoin:round;stroke-miterlimit:4;stroke-dasharray:none;stroke-dashoffset:0;stroke-opacity:1;paint-order:stroke fill markers" />
    <path
       inkscape:connector-curvature="0"
       id="path2536-4-8-3-53"
       d="m 20.63636,21.729197 h 83.4008"
       style="fill:none;stroke:#000000;stroke-width:0.499999;stroke-linecap:butt;stroke-linejoin:miter;stroke-miterlimit:4;stroke-dasharray:none;stroke-opacity:1;paint-order:markers fill stroke"
       inkscape:export-xdpi="300"
       inkscape:export-ydpi="300"
       inkscape:export-filename="C:\Users\mrmal\Desktop\Apunte Acústica\PNG\deflection.png" />
    <path
       inkscape:connector-curvature="0"
       id="path1000-6-8-3-1-9"
       d="M 104.03716,21.729197 V 6.2734372 H 20.63636 V 21.729197 Z"
       style="opacity:0.5;fill:url(#linearGradient4220-1-6);fill-opacity:1;stroke:none;stroke-width:0.3;stroke-linecap:butt;stroke-linejoin:miter;stroke-miterlimit:4;stroke-dasharray:none;stroke-opacity:1"
       inkscape:export-xdpi="300"
       inkscape:export-ydpi="300"
       inkscape:export-filename="C:\Users\mrmal\Desktop\Apunte Acústica\PNG\deflection.png" />
    <path
       inkscape:export-ydpi="300"
       inkscape:export-xdpi="300"
       inkscape:export-filename="C:\Users\mrmal\Desktop\Apunte Acústica\PNG\deflection.png"
       inkscape:connector-curvature="0"
       id="path1494"
       d="m 30.58674,21.729197 v 4.35188 c -1.32555,0.17357 -2.6021,0.45292 -3.64536,0.81593 -1.04323,0.36309 -1.84875,0.80926 -2.30158,1.29207 -0.45282,0.48281 -0.54957,1.00129 -0.27828,1.49861 0.27123,0.49734 0.91182,0.97231 1.82704,1.37464 0.91528,0.40233 2.10405,0.73082 3.39312,0.95669 1.28905,0.22599 2.67512,0.34831 3.95741,0.36805 1.28234,0.019 2.45647,-0.0627 3.35351,-0.21726 0.897,-0.15458 1.51261,-0.38045 1.75956,-0.62653 0.24679,-0.24612 0.12212,-0.51134 -0.35386,-0.73908 -0.47611,-0.22751 -1.30422,-0.41667 -2.36276,-0.52155 -1.05856,-0.10485 -2.34566,-0.12419 -3.67413,-0.0384 -1.32853,0.0862 -2.69468,0.27915 -3.90096,0.56826 -1.20623,0.28904 -2.2481,0.67477 -2.97602,1.11884 -0.72794,0.44407 -1.13792,0.94588 -1.17262,1.45098 -0.0346,0.50511 0.30833,1.01234 0.977,1.46667 0.66879,0.45432 1.66329,0.8545 2.83814,1.16123 1.17484,0.30688 2.52744,0.51892 3.86151,0.62478 1.33404,0.10596 2.6454,0.10483 3.74484,0.0151 1.0994,-0.0889 1.9824,-0.26585 2.52267,-0.48593 0.54024,-0.22027 0.73415,-0.48322 0.55574,-0.73244 -0.17844,-0.24916 -0.73078,-0.48351 -1.57518,-0.65081 -0.84442,-0.16751 -1.98001,-0.26675 -3.24119,-0.26511 -1.26111,0.002 -2.6447,0.10407 -3.95025,0.31069 -1.30552,0.2066 -2.52863,0.51801 -3.4932,0.90651 -0.96452,0.38852 -1.66611,0.85385 -2.00489,1.34669 -0.33879,0.49284 -0.31187,1.01223 0.0756,1.5012 0.38701,0.489 1.13473,0.94633 2.13323,1.3244 0.99853,0.37791 2.24619,0.67564 3.56144,0.86845 1.31524,0.19258 2.6945,0.27992 3.93824,0.26816 1.24371,-0.0114 2.3474,-0.12382 3.15241,-0.29968 0.80506,-0.17623 1.30733,-0.41619 1.436,-0.66704 0.12852,-0.25106 -0.11879,-0.51139 -0.70435,-0.72563 -0.58569,-0.21422 -1.50973,-0.38096 -2.63682,-0.45818 -1.12712,-0.0771 -2.45501,-0.0638 -3.79082,0.0566 -1.3358,0.12002 -2.67556,0.34715 -3.82572,0.66629 -1.15015,0.31905 -2.10622,0.73003 -2.73119,1.19123 -0.62501,0.4612 -0.91516,0.97197 -0.83046,1.47642 0.0847,0.50447 0.54614,1.00148 1.31552,1.43758 0.76938,0.43611 1.84616,0.80995 3.0731,1.08622 1.22695,0.27612 2.60121,0.45382 3.92346,0.52603 1.32228,0.0721 2.58834,0.0388 3.61559,-0.0775 1.02726,-0.11583 1.8113,-0.31371 2.24029,-0.54639 0.42899,-0.23245 0.49963,-0.49887 0.20378,-0.74207 -0.29587,-0.24307 -0.95959,-0.46204 -1.89309,-0.60682 -0.93348,-0.1447 -2.13548,-0.2142 -3.43098,-0.1804 -1.29547,0.0342 -2.681,0.17129 -3.95599,0.41087 -1.27503,0.23966 -2.43505,0.58099 -3.31317,0.99286 -0.87816,0.41187 -1.47019,0.89364 -1.69224,1.39358 -0.22195,0.49999 -0.0714,1.01708 0.42827,1.49483 0.49963,0.4777 1.3486,0.9148 2.42235,1.26658 1.0738,0.35171 2.3704,0.61708 3.70132,0.77629 1.33091,0.1592 2.69237,0.2119 3.88759,0.16865 1.1952,-0.0433 2.21959,-0.18156 2.92618,-0.37676 0.70661,-0.19524 1.09199,-0.44663 1.10099,-0.69925 0.0103,-0.25256 -0.35877,-0.50533 -1.04927,-0.7034 -0.69058,-0.19825 -1.70319,-0.34029 -2.88981,-0.38798 -1.18667,-0.0479 -2.54476,-1e-4 -3.87717,0.15381 -1.33246,0.15383 -2.6351,0.4146 -3.71998,0.76203 -1.08491,0.34751 -1.94756,0.78149 -2.46461,1.25717 -0.517,0.47571 -0.68502,0.99227 -0.4816,1.49309 0.20352,0.50081 0.77972,0.98465 1.64354,1.4 0.86385,0.41537 2.01426,0.76099 3.28352,1.00555 1.26923,0.24459 2.65418,0.38717 3.9541,0.42615 1.29995,0.0391 2.51056,-0.0266 3.45743,-0.1675 0.94689,-0.1409 1.62574,-0.35739 1.94004,-0.59945 0.31443,-0.24193 0.26101,-0.50851 -0.15001,-0.74275 -0.4111,-0.23433 -1.18078,-0.43483 -2.19588,-0.55489 -1.01509,-0.12 -2.27396,-0.1584 -3.59338,-0.0915 -1.31947,0.0669 -2.69589,0.23965 -3.93017,0.51091 -1.23427,0.27118 -2.32191,0.64135 -3.10666,1.07434 -0.78471,0.43297 -1.26249,0.92831 -1.36599,1.43239 -0.10368,0.50412 0.16947,1.01583 0.77784,1.4795 0.60825,0.46371 1.55167,0.87804 2.69213,1.20172 1.14048,0.32359 2.47561,0.55554 3.81163,0.68096 1.33597,0.12533 2.66875,0.14359 3.80585,0.071 1.13714,-0.0725 2.07407,-0.23586 2.67664,-0.44788 0.60253,-0.21193 0.86704,-0.47149 0.75713,-0.72284 -0.11008,-0.25145 -0.59593,-0.4932 -1.38584,-0.67246 -0.78988,-0.17927 -1.88295,-0.29472 -3.1197,-0.31182 -1.23672,-0.019 -2.61414,0.0653 -3.93255,0.25295 -1.31846,0.18763 -2.57362,0.48065 -3.58453,0.85469 -1.01092,0.3741 -1.77326,0.8287 -2.17823,1.31611 -0.40501,0.48736 -0.44945,1.00664 -0.12904,1.50077 0.3205,0.49417 1.00704,0.96202 1.95847,1.35436 0.95137,0.3923 2.16622,0.70793 3.4676,0.91989 0.23655,0.0384 0.47607,0.0737 0.71703,0.10521 v 4.32295"
       style="fill:none;fill-opacity:1;fill-rule:evenodd;stroke:#000000;stroke-width:0.499999;stroke-linecap:round;stroke-linejoin:round;stroke-miterlimit:4;stroke-dasharray:none;stroke-dashoffset:0;stroke-opacity:1;paint-order:stroke fill markers" />
    <path
       inkscape:export-ydpi="300"
       inkscape:export-xdpi="300"
       inkscape:export-filename="C:\Users\mrmal\Desktop\Apunte Acústica\PNG\deflection.png"
       inkscape:connector-curvature="0"
       id="path1496"
       d="m 94.086784,21.729197 v 6.23146 c -1.32555,0.24853 -2.6021,0.64854 -3.64536,1.16833 -1.04323,0.51991 -1.84875,1.15878 -2.30158,1.85013 -0.45282,0.69133 -0.54957,1.43375 -0.27828,2.14585 0.27123,0.71215 0.91182,1.39226 1.82704,1.96836 0.91528,0.57609 2.10405,1.04646 3.39312,1.36988 1.28905,0.3236 2.67512,0.49875 3.95741,0.52701 1.28234,0.0272 2.45647,-0.0897 3.353506,-0.31109 0.897,-0.22135 1.51261,-0.54477 1.75956,-0.89713 0.24679,-0.35242 0.12212,-0.73219 -0.35386,-1.05829 -0.47611,-0.32578 -1.30422,-0.59663 -2.362756,-0.74681 -1.05856,-0.15014 -2.34566,-0.17783 -3.67413,-0.055 -1.32853,0.12345 -2.69468,0.39972 -3.90096,0.8137 -1.20623,0.41387 -2.2481,0.9662 -2.97602,1.60207 -0.72794,0.63586 -1.13792,1.3544 -1.17262,2.07765 -0.0346,0.72327 0.30833,1.44957 0.977,2.10013 0.66879,0.65055 1.66329,1.22356 2.83814,1.66276 1.17484,0.43943 2.52744,0.74305 3.86151,0.89463 1.33404,0.15173 2.6454,0.1501 3.74484,0.0217 1.099396,-0.12722 1.982396,-0.38067 2.522666,-0.69579 0.54024,-0.31541 0.73415,-0.69193 0.55574,-1.04879 -0.17844,-0.35677 -0.73078,-0.69234 -1.57518,-0.9319 -0.844416,-0.23985 -1.980006,-0.38196 -3.241186,-0.37961 -1.26111,0.002 -2.6447,0.14902 -3.95025,0.44488 -1.30552,0.29583 -2.52863,0.74174 -3.4932,1.29804 -0.96452,0.55632 -1.66611,1.22262 -2.00489,1.92833 -0.33879,0.70568 -0.31187,1.44941 0.0756,2.14956 0.38701,0.7002 1.13473,1.35505 2.13323,1.8964 0.99853,0.54113 2.24619,0.96746 3.56144,1.24355 1.31524,0.27576 2.6945,0.40082 3.93824,0.38398 1.24371,-0.0164 2.347396,-0.1773 3.152406,-0.42912 0.80506,-0.25234 1.30733,-0.59594 1.436,-0.95514 0.12852,-0.35948 -0.11879,-0.73225 -0.70435,-1.03903 -0.58569,-0.30674 -1.50973,-0.54548 -2.636816,-0.65606 -1.12712,-0.11034 -2.45501,-0.0914 -3.79082,0.081 -1.3358,0.17184 -2.67556,0.49707 -3.82572,0.95405 -1.15015,0.45685 -2.10622,1.04534 -2.73119,1.70573 -0.62501,0.6604 -0.91516,1.39177 -0.83046,2.11409 0.0847,0.72235 0.54614,1.43402 1.31552,2.05847 0.76938,0.62447 1.84616,1.15977 3.0731,1.55536 1.22695,0.39538 2.60121,0.64983 3.92346,0.75322 1.32228,0.10328 2.58834,0.0556 3.61559,-0.11093 1.027256,-0.16586 1.811296,-0.4492 2.240286,-0.78238 0.42899,-0.33284 0.49963,-0.71432 0.20378,-1.06256 -0.29587,-0.34806 -0.95959,-0.6616 -1.89309,-0.86891 -0.933476,-0.2072 -2.135476,-0.30671 -3.430976,-0.25831 -1.29547,0.049 -2.681,0.24527 -3.95599,0.58832 -1.27503,0.34317 -2.43505,0.83192 -3.31317,1.42168 -0.87816,0.58975 -1.47019,1.2796 -1.69224,1.99547 -0.22195,0.71593 -0.0714,1.45636 0.42827,2.14045 0.49963,0.68402 1.3486,1.3099 2.42235,1.81361 1.0738,0.50362 2.3704,0.8836 3.70132,1.11158 1.33091,0.22795 2.69237,0.30342 3.88759,0.24148 1.1952,-0.062 2.219586,-0.25997 2.926176,-0.53948 0.70661,-0.27957 1.09199,-0.63953 1.10099,-1.00126 0.0103,-0.36164 -0.35877,-0.72358 -1.04927,-1.0072 -0.69058,-0.28387 -1.703186,-0.48726 -2.889806,-0.55555 -1.18667,-0.0685 -2.54476,-1.4e-4 -3.87717,0.22024 -1.33246,0.22027 -2.6351,0.59368 -3.71998,1.09115 -1.08491,0.49761 -1.94756,1.11903 -2.46461,1.80015 -0.517,0.68117 -0.68502,1.42083 -0.4816,2.13795 0.20352,0.71713 0.77972,1.40993 1.64354,2.00466 0.86385,0.59477 2.01426,1.08967 3.28352,1.43986 1.26923,0.35023 2.65418,0.55438 3.9541,0.6102 1.29995,0.056 2.51056,-0.0382 3.457426,-0.23984 0.94689,-0.20176 1.62574,-0.51175 1.94004,-0.85835 0.31443,-0.34643 0.26101,-0.72815 -0.15001,-1.06355 -0.4111,-0.33553 -1.18078,-0.62263 -2.195876,-0.79455 -1.01509,-0.17182 -2.27396,-0.2268 -3.59338,-0.13108 -1.31947,0.0957 -2.69589,0.34317 -3.93017,0.73159 -1.23427,0.3883 -2.32191,0.91833 -3.10666,1.53834 -0.78471,0.61997 -1.26249,1.32925 -1.36599,2.05104 -0.10368,0.72185 0.16947,1.45457 0.77784,2.1185 0.60825,0.66399 1.55167,1.25727 2.69213,1.72074 1.14048,0.46335 2.47561,0.79548 3.81163,0.97507 1.33597,0.17946 2.66875,0.20561 3.80585,0.10162 1.13714,-0.10386 2.074066,-0.33773 2.676636,-0.64132 0.60253,-0.30346 0.86704,-0.67512 0.75713,-1.03503 -0.11008,-0.36005 -0.59593,-0.70622 -1.38584,-0.9629 -0.78988,-0.25669 -1.882946,-0.42201 -3.119696,-0.44649 -1.23672,-0.0272 -2.61414,0.0935 -3.93255,0.3622 -1.31846,0.26866 -2.57362,0.68823 -3.58453,1.22383 -1.01092,0.53567 -1.77326,1.18661 -2.17823,1.88454 -0.40501,0.69785 -0.44945,1.4414 -0.12904,2.14895 0.3205,0.7076 1.00704,1.37752 1.95847,1.93931 0.95137,0.56173 2.16622,1.01368 3.4676,1.3172 0.23655,0.055 0.47607,0.10551 0.71703,0.15065 v 6.190028"
       style="fill:none;fill-opacity:1;fill-rule:evenodd;stroke:#000000;stroke-width:0.499999;stroke-linecap:round;stroke-linejoin:round;stroke-miterlimit:4;stroke-dasharray:none;stroke-dashoffset:0;stroke-opacity:1;paint-order:stroke fill markers" />
    <circle
       style="fill:#000000;fill-opacity:1;fill-rule:nonzero;stroke:none;stroke-width:0.3;stroke-linecap:round;stroke-linejoin:round;stroke-miterlimit:4;stroke-dasharray:none;stroke-dashoffset:0;stroke-opacity:0.959839"
       id="path1353-4-5-5-1-7-8-2"
       cx="62.316086"
       cy="76.507881"
       r="1"
       inkscape:export-filename="C:\Users\mrmal\Desktop\Apunte Acústica\PNG\deflection.png"
       inkscape:export-xdpi="300"
       inkscape:export-ydpi="300" />
    <circle
       style="fill:#000000;fill-opacity:1;fill-rule:nonzero;stroke:none;stroke-width:0.3;stroke-linecap:round;stroke-linejoin:round;stroke-miterlimit:4;stroke-dasharray:none;stroke-dashoffset:0;stroke-opacity:0.959839"
       id="path1353-4-5-5-1-7-8-5"
       cx="94.066093"
       cy="86.236473"
       r="1"
       inkscape:export-filename="C:\Users\mrmal\Desktop\Apunte Acústica\PNG\deflection.png"
       inkscape:export-xdpi="300"
       inkscape:export-ydpi="300" />
    <path
       id="path2972"
       style="display:inline;fill:none;stroke:#000000;stroke-width:0.2;stroke-linecap:round;stroke-linejoin:round;stroke-miterlimit:4;stroke-dasharray:none;stroke-opacity:1"
       d="m 134.55231,86.231367 c 2.4958,0.234057 1.34622,-7.65185 1.34622,-7.65185 0,0 -0.19696,-1.59769 1.72626,-2.07162 m -3.07248,-9.72349 c 2.4958,-0.23404 1.34622,7.6519 1.34622,7.6519 0,0 -0.19696,1.59767 1.72626,2.07159"
       inkscape:connector-curvature="0"
       inkscape:export-xdpi="300"
       inkscape:export-ydpi="300"
       inkscape:export-filename="C:\Users\mrmal\Desktop\Apunte Acústica\PNG\deflection.png" />
    <path
       id="path1681"
       style="display:inline;fill:none;stroke:#000000;stroke-width:0.2;stroke-linecap:round;stroke-linejoin:round;stroke-miterlimit:4;stroke-dasharray:none;stroke-opacity:1"
       d="m 111.63118,76.302047 c 1.58399,0.11365 0.85439,-3.71553 0.85439,-3.71553 0,0 -0.125,-0.77579 1.09559,-1.00593 m -1.94998,-4.72146 c 1.58399,-0.11364 0.85439,3.71556 0.85439,3.71556 0,0 -0.125,0.77578 1.09559,1.0059"
       inkscape:connector-curvature="0"
       inkscape:export-xdpi="300"
       inkscape:export-ydpi="300"
       inkscape:export-filename="C:\Users\mrmal\Desktop\Apunte Acústica\PNG\deflection.png" />
    <path
       id="path1683"
       style="display:inline;fill:none;stroke:#000000;stroke-width:0.2;stroke-linecap:round;stroke-linejoin:round;stroke-miterlimit:4;stroke-dasharray:none;stroke-opacity:1"
       d="m 111.63118,86.285191 c 1.58399,0.113643 0.85439,-3.715534 0.85439,-3.715534 0,0 -0.125,-0.77579 1.09559,-1.005923 m -1.94998,-4.721457 c 1.58399,-0.11364 0.85439,3.71556 0.85439,3.71556 0,0 -0.125,0.775774 1.09559,1.005897"
       inkscape:connector-curvature="0"
       inkscape:export-xdpi="300"
       inkscape:export-ydpi="300"
       inkscape:export-filename="C:\Users\mrmal\Desktop\Apunte Acústica\PNG\deflection.png" />
    <path
       inkscape:connector-curvature="0"
       id="path1687"
       d="M 108.94747,76.463187 H 15.62604"
       style="opacity:0.5;fill:none;stroke:#000000;stroke-width:0.3;stroke-linecap:round;stroke-linejoin:round;stroke-miterlimit:4;stroke-dasharray:1.2, 1.2;stroke-dashoffset:0;stroke-opacity:1;paint-order:markers fill stroke"
       inkscape:export-xdpi="300"
       inkscape:export-ydpi="300"
       inkscape:export-filename="C:\Users\mrmal\Desktop\Apunte Acústica\PNG\deflection.png" />
    <path
       inkscape:connector-curvature="0"
       id="path1689"
       d="M 108.94747,66.873757 H 15.62604"
       style="opacity:0.5;fill:none;stroke:#000000;stroke-width:0.3;stroke-linecap:round;stroke-linejoin:round;stroke-miterlimit:4;stroke-dasharray:1.2, 1.2;stroke-dashoffset:0;stroke-opacity:1;paint-order:markers fill stroke"
       inkscape:export-xdpi="300"
       inkscape:export-ydpi="300"
       inkscape:export-filename="C:\Users\mrmal\Desktop\Apunte Acústica\PNG\deflection.png" />
    <path
       inkscape:connector-curvature="0"
       id="path1691"
       d="M 108.94747,86.204612 H 15.62604"
       style="opacity:0.5;fill:none;stroke:#000000;stroke-width:0.3;stroke-linecap:round;stroke-linejoin:round;stroke-miterlimit:4;stroke-dasharray:1.2, 1.2;stroke-dashoffset:0;stroke-opacity:1;paint-order:markers fill stroke"
       inkscape:export-xdpi="300"
       inkscape:export-ydpi="300"
       inkscape:export-filename="C:\Users\mrmal\Desktop\Apunte Acústica\PNG\deflection.png" />
    <text
       xml:space="preserve"
       style="font-style:normal;font-weight:normal;font-size:3.70239px;line-height:1.25;font-family:sans-serif;fill:#000000;fill-opacity:1;stroke:none;stroke-width:0.264583"
       x="2.2708442"
       y="68.018898"
       id="text1302-4-9-3"><tspan
         sodipodi:role="line"
         id="tspan1300-2-6-7"
         style="stroke-width:0.264583"
         x="2.2708442"
         y="68.018898">$l_0$</tspan></text>
    <text
       xml:space="preserve"
       style="font-style:normal;font-weight:normal;font-size:3.70239px;line-height:1.25;font-family:sans-serif;fill:#000000;fill-opacity:1;stroke:none;stroke-width:0.264583"
       x="2.2708442"
       y="77.221748"
       id="text5135"><tspan
         sodipodi:role="line"
         id="tspan5133"
         style="stroke-width:0.264583"
         x="2.2708442"
         y="77.221748">$x_0$</tspan></text>
    <text
       xml:space="preserve"
       style="font-style:normal;font-weight:normal;font-size:3.70239px;line-height:1.25;font-family:sans-serif;fill:#000000;fill-opacity:1;stroke:none;stroke-width:0.264583"
       x="2.2708442"
       y="87.213448"
       id="text5321"><tspan
         sodipodi:role="line"
         id="tspan5319"
         style="stroke-width:0.264583"
         x="2.2708442"
         y="87.213448">$x_1$</tspan></text>
    <text
       xml:space="preserve"
       style="font-style:normal;font-weight:normal;font-size:3.70239px;line-height:1.25;font-family:sans-serif;fill:#000000;fill-opacity:1;stroke:none;stroke-width:0.264583"
       x="56.361015"
       y="81.716324"
       id="text1302"><tspan
         sodipodi:role="line"
         id="tspan1300"
         style="stroke-width:0.264583"
         x="56.361015"
         y="81.716324">$m_0$</tspan></text>
    <text
       xml:space="preserve"
       style="font-style:normal;font-weight:normal;font-size:3.70239px;line-height:1.25;font-family:sans-serif;fill:#000000;fill-opacity:1;stroke:none;stroke-width:0.264583"
       x="88.762627"
       y="91.659439"
       id="text1302-4"><tspan
         sodipodi:role="line"
         id="tspan1300-2"
         style="stroke-width:0.264583"
         x="88.762627"
         y="91.659439">$m_1$</tspan></text>
    <text
       xml:space="preserve"
       style="font-style:normal;font-weight:normal;font-size:3.70239px;line-height:1.25;font-family:sans-serif;fill:#000000;fill-opacity:1;stroke:none;stroke-width:0.264583"
       x="114.93569"
       y="72.521713"
       id="text1302-4-9"><tspan
         sodipodi:role="line"
         id="tspan1300-2-6"
         style="stroke-width:0.264583"
         x="114.93569"
         y="72.521713">$x_0-l_0$</tspan></text>
    <text
       xml:space="preserve"
       style="font-style:normal;font-weight:normal;font-size:3.70239px;line-height:1.25;font-family:sans-serif;fill:#000000;fill-opacity:1;stroke:none;stroke-width:0.264583"
       x="114.93569"
       y="83.105057"
       id="text3036"><tspan
         sodipodi:role="line"
         id="tspan3034"
         style="stroke-width:0.264583"
         x="114.93569"
         y="83.105057">$x_1-x_0$</tspan></text>
    <text
       xml:space="preserve"
       style="font-style:normal;font-weight:normal;font-size:3.70239px;line-height:1.25;font-family:sans-serif;fill:#000000;fill-opacity:1;stroke:none;stroke-width:0.264583"
       x="139.45496"
       y="77.81337"
       id="text3802"><tspan
         sodipodi:role="line"
         id="tspan3800"
         style="stroke-width:0.264583"
         x="139.45496"
         y="77.81337">$x_1-l_0$</tspan></text>
  </g>
</svg>
