<?xml version="1.0" encoding="UTF-8" standalone="no"?>
<!-- Created with Inkscape (http://www.inkscape.org/) -->

<svg
   width="120mm"
   height="80mm"
   viewBox="0 0 120 80"
   version="1.1"
   id="svg9032"
   inkscape:version="1.1 (c68e22c387, 2021-05-23)"
   sodipodi:docname="delany-bazley.svg"
   xmlns:inkscape="http://www.inkscape.org/namespaces/inkscape"
   xmlns:sodipodi="http://sodipodi.sourceforge.net/DTD/sodipodi-0.dtd"
   xmlns:xlink="http://www.w3.org/1999/xlink"
   xmlns="http://www.w3.org/2000/svg"
   xmlns:svg="http://www.w3.org/2000/svg">
  <sodipodi:namedview
     id="namedview9034"
     pagecolor="#ffffff"
     bordercolor="#666666"
     borderopacity="1.0"
     inkscape:pageshadow="2"
     inkscape:pageopacity="0.0"
     inkscape:pagecheckerboard="0"
     inkscape:document-units="mm"
     showgrid="false"
     inkscape:zoom="1.3416246"
     inkscape:cx="266.84067"
     inkscape:cy="145.71886"
     inkscape:window-width="1920"
     inkscape:window-height="1001"
     inkscape:window-x="-9"
     inkscape:window-y="-9"
     inkscape:window-maximized="1"
     inkscape:current-layer="layer1" />
  <defs
     id="defs9029">
    <linearGradient
       inkscape:collect="always"
       xlink:href="#linearGradient8473"
       id="linearGradient2367"
       gradientUnits="userSpaceOnUse"
       gradientTransform="matrix(-1,0,0,1,285.68536,305.50104)"
       x1="282.50391"
       y1="-266.29965"
       x2="282.50391"
       y2="-245.27028" />
    <linearGradient
       inkscape:collect="always"
       id="linearGradient8473">
      <stop
         style="stop-color:#000000;stop-opacity:0.05"
         offset="0"
         id="stop8469" />
      <stop
         style="stop-color:#000000;stop-opacity:0.2"
         offset="1"
         id="stop8471" />
    </linearGradient>
  </defs>
  <g
     inkscape:label="Layer 1"
     inkscape:groupmode="layer"
     id="layer1">
    <path
       id="path2972-7-6"
       style="display:inline;fill:none;stroke:#000000;stroke-width:0.2;stroke-linecap:round;stroke-linejoin:round;stroke-miterlimit:4;stroke-dasharray:none;stroke-opacity:1"
       d="m 88.021145,63.808883 c -0.25474,2.49581 8.32675,1.34623 8.32675,1.34623 0,0 1.73858,-0.19697 2.2543,1.72626 m 10.581135,-3.07249 c 0.25467,2.49581 -8.32681,1.34623 -8.32681,1.34623 0,0 -1.738585,-0.19697 -2.254325,1.72626"
       inkscape:connector-curvature="0"
       inkscape:export-xdpi="300"
       inkscape:export-ydpi="300"
       inkscape:export-filename="C:\Users\Admin\Desktop\DelanyBazley.png" />
    <path
       style="fill:#000000;fill-opacity:0.25;stroke:#000000;stroke-width:0.3;stroke-linecap:round;stroke-linejoin:round"
       d="m 111.58026,18.507033 c 2.89314,-2e-5 5.23849,9.38138 5.23849,20.95393 0,11.57255 -2.34535,20.95393 -5.23849,20.95393 h -2.61924 c 2.89314,2e-5 5.23849,-9.38138 5.23849,-20.95393 0,-11.57255 -2.34535,-20.95395 -5.23849,-20.95393 z"
       id="path7635-5"
       sodipodi:nodetypes="ssscscs"
       inkscape:export-filename="C:\Users\Admin\Desktop\DelanyBazley.png"
       inkscape:export-xdpi="300"
       inkscape:export-ydpi="300" />
    <path
       inkscape:export-ydpi="300"
       inkscape:export-xdpi="300"
       inkscape:connector-curvature="0"
       d="m 10.023215,63.808883 c -0.91721,2.43511 29.98588,1.31348 29.98588,1.31348 0,0 6.26092,-0.19218 8.11816,1.68428 m 38.10395,-2.99776 c 0.91721,2.43511 -29.98588,1.31348 -29.98588,1.31348 0,0 -6.26092,-0.19218 -8.11807,1.68428"
       style="display:inline;fill:none;stroke:#000000;stroke-width:0.2;stroke-linecap:round;stroke-linejoin:round;stroke-miterlimit:4;stroke-dasharray:none;stroke-opacity:1"
       id="path25298-6"
       inkscape:export-filename="C:\Users\Admin\Desktop\DelanyBazley.png" />
    <path
       inkscape:export-ydpi="300"
       inkscape:export-xdpi="300"
       inkscape:connector-curvature="0"
       d="m 9.140435,16.202893 c -1.1984,-3.119 39.17834,-1.68237 39.17834,-1.68237 0,0 8.18026,0.24616 10.60687,-2.15729 m 49.785085,3.83966 c 1.1984,-3.119 -39.178345,-1.68237 -39.178345,-1.68237 0,0 -8.18026,0.24616 -10.60674,-2.15729"
       style="display:inline;fill:none;stroke:#000000;stroke-width:0.200001;stroke-linecap:round;stroke-linejoin:round;stroke-miterlimit:4;stroke-dasharray:none;stroke-opacity:1"
       id="path25298-3"
       inkscape:export-filename="C:\Users\Admin\Desktop\DelanyBazley.png" />
    <path
       style="fill:#000000;fill-opacity:0.2;stroke:#000000;stroke-width:0.3;stroke-linecap:round;stroke-linejoin:round"
       d="m 114.1997,39.460983 c 0,11.57255 -2.34535,20.95395 -5.23847,20.95393 H 8.419745 c -2.89314,-10e-6 -5.23849,-9.3814 -5.23849,-20.95393 0,-11.57253 2.34535,-20.95392 5.23847,-20.95392 l 100.541485,-10e-6 c 2.89314,-3e-5 5.23849,9.38138 5.23849,20.95393 z"
       id="path4322-5"
       sodipodi:nodetypes="sccsccs"
       inkscape:export-filename="C:\Users\Admin\Desktop\DelanyBazley.png"
       inkscape:export-xdpi="300"
       inkscape:export-ydpi="300" />
    <path
       style="fill:none;stroke:#000000;stroke-width:0.3;stroke-linecap:round;stroke-linejoin:round;stroke-miterlimit:4;stroke-dasharray:1.2, 1.2;stroke-dashoffset:0"
       d="m 87.794345,60.414903 c -2.89313,-1e-5 -5.23848,-9.3814 -5.23848,-20.95393 0,-11.57254 2.34535,-20.95393 5.23848,-20.95394"
       id="ellipse3951-6"
       inkscape:export-filename="C:\Users\Admin\Desktop\DelanyBazley.png"
       inkscape:export-xdpi="300"
       inkscape:export-ydpi="300" />
    <path
       style="fill:url(#linearGradient2367);fill-opacity:1;stroke:none;stroke-width:0.3;stroke-linecap:round;stroke-linejoin:round;stroke-miterlimit:4;stroke-dasharray:none;stroke-dashoffset:0"
       d="m 13.658035,39.460993 c 0,-11.57254 -2.34535,-20.95393 -5.23828,-20.95394 -2.89294,-3e-5 -5.23829,9.38137 -5.23829,20.95392 0,11.57255 2.34535,20.95395 5.23829,20.95394 2.89293,0 5.23828,-9.38139 5.23828,-20.95392 z"
       id="path5543-9"
       sodipodi:nodetypes="scscs"
       inkscape:export-filename="C:\Users\Admin\Desktop\DelanyBazley.png"
       inkscape:export-xdpi="300"
       inkscape:export-ydpi="300" />
    <path
       style="fill:none;stroke:#000000;stroke-width:0.3;stroke-linecap:round;stroke-linejoin:round"
       d="m 8.419745,18.507053 c 2.89314,-2e-5 5.23849,9.38138 5.23849,20.95393 0,11.57255 -2.34535,20.95395 -5.23849,20.95393"
       id="path5682-3"
       inkscape:export-filename="C:\Users\Admin\Desktop\DelanyBazley.png"
       inkscape:export-xdpi="300"
       inkscape:export-ydpi="300" />
    <path
       id="path7635-4"
       style="fill:#000000;fill-opacity:0.1;stroke:none;stroke-width:0.3;stroke-linecap:round;stroke-linejoin:round"
       d="m 93.032835,39.460963 c 0,-11.57255 -2.34535,-20.95395 -5.23849,-20.95393 h 21.166685 c 2.89314,-2e-5 5.23849,9.38138 5.23849,20.95393 0,11.57255 -2.34535,20.95395 -5.23849,20.95393 H 87.794345 c 2.89314,2e-5 5.23849,-9.38138 5.23849,-20.95393 z"
       inkscape:export-filename="C:\Users\Admin\Desktop\DelanyBazley.png"
       inkscape:export-xdpi="300"
       inkscape:export-ydpi="300" />
    <path
       style="fill:#000000;fill-opacity:0.15;stroke:none;stroke-width:0.3;stroke-linecap:round;stroke-linejoin:round;stroke-miterlimit:4;stroke-dasharray:none;stroke-dashoffset:0"
       d="m 82.561235,39.460983 c 0,-11.57254 2.34535,-20.95393 5.23828,-20.95394 2.89294,-3e-5 5.23829,9.38137 5.23829,20.95392 0,11.57255 -2.34535,20.95395 -5.23829,20.95394 -2.89293,0 -5.23828,-9.38139 -5.23828,-20.95392 z"
       id="path7637-4"
       sodipodi:nodetypes="scscs"
       inkscape:export-filename="C:\Users\Admin\Desktop\DelanyBazley.png"
       inkscape:export-xdpi="300"
       inkscape:export-ydpi="300" />
    <path
       style="fill:none;stroke:#000000;stroke-width:0.3;stroke-linecap:round;stroke-linejoin:round;stroke-miterlimit:4;stroke-dasharray:1.2, 1.2;stroke-dashoffset:0"
       d="m 108.96103,60.414903 c -2.89313,-1e-5 -5.23848,-9.3814 -5.23848,-20.95393 0,-11.57254 2.34535,-20.95393 5.23848,-20.95394"
       id="path2799"
       inkscape:export-filename="C:\Users\Admin\Desktop\DelanyBazley.png"
       inkscape:export-xdpi="300"
       inkscape:export-ydpi="300" />
    <path
       style="fill:none;fill-opacity:0.25;stroke:#000000;stroke-width:0.3;stroke-linecap:round;stroke-linejoin:round"
       d="m 87.794345,60.414893 c 2.89314,2e-5 5.23849,-9.38138 5.23849,-20.95393 0,-11.57255 -2.34535,-20.95395 -5.23849,-20.95393"
       id="path3139"
       inkscape:export-filename="C:\Users\Admin\Desktop\DelanyBazley.png"
       inkscape:export-xdpi="300"
       inkscape:export-ydpi="300" />
    <g
       id="g16223"
       transform="translate(-384.22415,435.3709)"
       inkscape:export-filename="C:\Users\Admin\Desktop\DelanyBazley.png"
       inkscape:export-xdpi="300"
       inkscape:export-ydpi="300">
      <g
         id="g16031"
         transform="translate(0,-5.2916667)">
        <path
           inkscape:connector-curvature="0"
           id="path16019"
           d="M 489.97936,-398.52452 H 479.82713"
           style="fill:none;stroke:#000000;stroke-width:0.3;stroke-linecap:round;stroke-linejoin:round;stroke-miterlimit:4;stroke-dasharray:none;stroke-opacity:1" />
        <path
           sodipodi:nodetypes="cccc"
           inkscape:connector-curvature="0"
           id="path16021"
           d="m 489.85769,-398.52452 v -1.31852 c 0,0 0.67127,1.0788 5.13026,1.31852 -4.45899,0.23972 -5.13026,1.31852 -5.13026,1.31852 z"
           style="fill:#000000;fill-opacity:1;stroke:#000000;stroke-width:0.265;stroke-linecap:round;stroke-linejoin:round;stroke-miterlimit:4;stroke-dasharray:none;stroke-opacity:1" />
      </g>
      <g
         id="g16121"
         transform="matrix(-1,0,0,1,974.79735,10.583333)">
        <path
           inkscape:connector-curvature="0"
           id="path16117"
           d="M 489.97936,-398.52452 H 479.82713"
           style="fill:none;stroke:#000000;stroke-width:0.3;stroke-linecap:round;stroke-linejoin:round;stroke-miterlimit:4;stroke-dasharray:none;stroke-opacity:1" />
        <path
           sodipodi:nodetypes="cccc"
           inkscape:connector-curvature="0"
           id="path16119"
           d="m 489.85769,-398.52452 v -1.31852 c 0,0 0.67127,1.0788 5.13026,1.31852 -4.45899,0.23972 -5.13026,1.31852 -5.13026,1.31852 z"
           style="fill:#000000;fill-opacity:1;stroke:#000000;stroke-width:0.265;stroke-linecap:round;stroke-linejoin:round;stroke-miterlimit:4;stroke-dasharray:none;stroke-opacity:1" />
      </g>
    </g>
    <g
       id="g16215"
       transform="translate(-430.49851,410.54318)"
       inkscape:export-filename="C:\Users\Admin\Desktop\DelanyBazley.png"
       inkscape:export-xdpi="300"
       inkscape:export-ydpi="300">
      <g
         id="g16115"
         transform="translate(0,5.2916667)">
        <path
           inkscape:connector-curvature="0"
           id="path849-0-9"
           d="m 490.79313,-384.28013 h -27.6823"
           style="fill:none;stroke:#000000;stroke-width:0.3;stroke-linecap:round;stroke-linejoin:round;stroke-miterlimit:4;stroke-dasharray:none;stroke-opacity:1" />
        <path
           sodipodi:nodetypes="cccc"
           inkscape:connector-curvature="0"
           id="path872-0-0"
           d="m 490.79313,-384.28013 v -1.31852 c 0,0 0.67127,1.0788 5.13026,1.31852 -4.45899,0.23972 -5.13026,1.31852 -5.13026,1.31852 z"
           style="fill:#000000;fill-opacity:1;stroke:#000000;stroke-width:0.265;stroke-linecap:round;stroke-linejoin:round;stroke-miterlimit:4;stroke-dasharray:none;stroke-opacity:1" />
      </g>
      <g
         id="g16207"
         transform="matrix(-1,0,0,1,959.01649,21.166667)">
        <path
           inkscape:connector-curvature="0"
           id="path16203"
           d="m 490.79313,-384.28013 h -27.6823"
           style="fill:none;stroke:#000000;stroke-width:0.3;stroke-linecap:round;stroke-linejoin:round;stroke-miterlimit:4;stroke-dasharray:none;stroke-opacity:1" />
        <path
           sodipodi:nodetypes="cccc"
           inkscape:connector-curvature="0"
           id="path16205"
           d="m 490.79313,-384.28013 v -1.31852 c 0,0 0.67127,1.0788 5.13026,1.31852 -4.45899,0.23972 -5.13026,1.31852 -5.13026,1.31852 z"
           style="fill:#000000;fill-opacity:1;stroke:#000000;stroke-width:0.265;stroke-linecap:round;stroke-linejoin:round;stroke-miterlimit:4;stroke-dasharray:none;stroke-opacity:1" />
      </g>
    </g>
    <text
       xml:space="preserve"
       style="font-style:normal;font-weight:normal;font-size:5.579px;line-height:1.25;font-family:sans-serif;fill:#000000;fill-opacity:1;stroke:none;stroke-width:0.264583"
       x="57.372768"
       y="8.5733404"
       id="text2530"><tspan
         sodipodi:role="line"
         id="tspan2528"
         style="stroke-width:0.264583"
         x="57.372768"
         y="8.5733404">$L$</tspan></text>
    <text
       xml:space="preserve"
       style="font-style:normal;font-weight:normal;font-size:5.579px;line-height:1.25;font-family:sans-serif;fill:#000000;fill-opacity:1;stroke:none;stroke-width:0.264583"
       x="95.460426"
       y="73.636978"
       id="text2530-5"><tspan
         sodipodi:role="line"
         id="tspan2528-5"
         style="stroke-width:0.264583"
         x="95.460426"
         y="73.636978">$D$</tspan></text>
    <text
       xml:space="preserve"
       style="font-style:normal;font-weight:normal;font-size:5.579px;line-height:1.25;font-family:sans-serif;fill:#000000;fill-opacity:1;stroke:none;stroke-width:0.264583"
       x="43.135399"
       y="73.636978"
       id="text3633"><tspan
         sodipodi:role="line"
         id="tspan3631"
         style="stroke-width:0.264583"
         x="43.135399"
         y="73.636978">$L-D$</tspan></text>
    <text
       xml:space="preserve"
       style="font-style:normal;font-weight:normal;font-size:5.579px;line-height:1.25;font-family:sans-serif;fill:#000000;fill-opacity:1;stroke:none;stroke-width:0.264583"
       x="4.1257563"
       y="40.784828"
       id="text3739"><tspan
         sodipodi:role="line"
         id="tspan3737"
         style="stroke-width:0.264583"
         x="4.1257563"
         y="40.784828"
         dy="0 0 0 0 0 0 0 0 0.19721116 0 0 0 0.39442229">$\sub{Z}{in}$</tspan></text>
    <text
       xml:space="preserve"
       style="font-style:normal;font-weight:normal;font-size:5.579px;line-height:1.25;font-family:sans-serif;fill:#000000;fill-opacity:1;stroke:none;stroke-width:0.264583"
       x="84.256561"
       y="40.784828"
       id="text4533"><tspan
         sodipodi:role="line"
         id="tspan4531"
         style="stroke-width:0.264583"
         x="84.256561"
         y="40.784828"
         dy="0 0 0 0 0.39442229">$Z_s$</tspan></text>
    <text
       xml:space="preserve"
       style="font-style:normal;font-weight:normal;font-size:5.579px;line-height:1.25;font-family:sans-serif;fill:#000000;fill-opacity:1;stroke:none;stroke-width:0.264583"
       x="106.17902"
       y="40.784828"
       id="text4639"><tspan
         sodipodi:role="line"
         id="tspan4637"
         style="stroke-width:0.264583"
         x="106.17902"
         y="40.784828"
         dy="0 0 0 0 0.39442229">$Z_L$</tspan></text>
  </g>
</svg>
