<?xml version="1.0" encoding="UTF-8" standalone="no"?>
<!-- Created with Inkscape (http://www.inkscape.org/) -->

<svg
   width="180mm"
   height="90mm"
   viewBox="0 0 180 90"
   version="1.1"
   id="svg2704"
   inkscape:version="1.1 (c68e22c387, 2021-05-23)"
   sodipodi:docname="k-serie-paralelo.svg"
   xmlns:inkscape="http://www.inkscape.org/namespaces/inkscape"
   xmlns:sodipodi="http://sodipodi.sourceforge.net/DTD/sodipodi-0.dtd"
   xmlns:xlink="http://www.w3.org/1999/xlink"
   xmlns="http://www.w3.org/2000/svg"
   xmlns:svg="http://www.w3.org/2000/svg">
  <sodipodi:namedview
     id="namedview2706"
     pagecolor="#ffffff"
     bordercolor="#666666"
     borderopacity="1.0"
     inkscape:pageshadow="2"
     inkscape:pageopacity="0.0"
     inkscape:pagecheckerboard="0"
     inkscape:document-units="mm"
     showgrid="false"
     inkscape:zoom="1"
     inkscape:cx="317"
     inkscape:cy="202.5"
     inkscape:window-width="1920"
     inkscape:window-height="1001"
     inkscape:window-x="-9"
     inkscape:window-y="-9"
     inkscape:window-maximized="1"
     inkscape:current-layer="layer1" />
  <defs
     id="defs2701">
    <linearGradient
       inkscape:collect="always"
       xlink:href="#linearGradient1879"
       id="linearGradient1282"
       gradientUnits="userSpaceOnUse"
       gradientTransform="matrix(0,-0.16557786,-12.324358,0,1433.0237,-0.763075)"
       x1="-135.54034"
       y1="104.68308"
       x2="-30.737953"
       y2="104.68308" />
    <linearGradient
       inkscape:collect="always"
       id="linearGradient1879">
      <stop
         style="stop-color:#000000;stop-opacity:1;"
         offset="0"
         id="stop1875" />
      <stop
         style="stop-color:#000000;stop-opacity:0;"
         offset="1"
         id="stop1877" />
    </linearGradient>
    <linearGradient
       inkscape:collect="always"
       xlink:href="#linearGradient1879"
       id="linearGradient4220"
       gradientUnits="userSpaceOnUse"
       gradientTransform="matrix(0,-0.16557786,-17.113675,0,1840.8143,-0.763075)"
       x1="-135.54034"
       y1="104.68308"
       x2="-30.737953"
       y2="104.68308" />
  </defs>
  <g
     inkscape:label="Layer 1"
     inkscape:groupmode="layer"
     id="layer1">
    <path
       style="fill:none;fill-opacity:1;fill-rule:evenodd;stroke:#000000;stroke-width:0.500002;stroke-linecap:round;stroke-linejoin:round;stroke-miterlimit:4;stroke-dasharray:none;stroke-dashoffset:0;stroke-opacity:1;paint-order:stroke fill markers"
       d="m 142.87256,48.710006 c 0.43954,-0.0702 0.87415,-0.15351 1.29706,-0.25006 1.32413,-0.30238 2.52885,-0.73307 3.44081,-1.25274 0.91198,-0.51966 1.52683,-1.12756 1.75742,-1.75836 0.23051,-0.63086 0.0742,-1.28331 -0.44477,-1.8861 -0.51888,-0.60276 -1.40055,-1.15426 -2.51566,-1.5981 -1.11517,-0.44377 -2.46172,-0.77861 -3.84393,-0.9795 -1.38217,-0.2008 -2.79609,-0.26741 -4.03736,-0.21279 -1.24124,0.0546 -2.30509,0.22908 -3.03892,0.4754 -0.73383,0.24633 -1.13361,0.56352 -1.1434,0.88225 -0.0107,0.31867 0.37259,0.63761 1.0897,0.88753 0.71718,0.25014 1.7688,0.42939 3.00114,0.48953 1.23238,0.0604 2.64279,1.6e-4 4.02654,-0.19408 1.3838,-0.19409 2.73662,-0.52313 3.8633,-0.96148 1.1267,-0.43849 2.02258,-0.98606 2.55956,-1.58622 0.53695,-0.60023 0.71141,-1.25203 0.50015,-1.88393 -0.21137,-0.63191 -0.80976,-1.2424 -1.70686,-1.76646 -0.89712,-0.5241 -2.09186,-0.96019 -3.41002,-1.26876 -1.31813,-0.30862 -2.75643,-0.48853 -4.10643,-0.5377 -1.35004,-0.0494 -2.60728,0.0336 -3.59063,0.21135 -0.98338,0.17778 -1.68838,0.45094 -2.01479,0.75636 -0.32654,0.30526 -0.27105,0.64162 0.1558,0.93717 0.42694,0.29568 1.22627,0.54866 2.28047,0.70014 1.0542,0.15144 2.36157,0.19986 3.73183,0.1155 1.37029,-0.0844 2.79974,-0.3024 4.08158,-0.64465 1.28181,-0.34216 2.41136,-0.80922 3.22633,-1.35556 0.81495,-0.5463 1.31114,-1.1713 1.41863,-1.80733 0.10767,-0.63607 -0.17601,-1.28173 -0.80782,-1.86676 -0.63167,-0.5851 -1.61144,-1.10788 -2.79584,-1.51628 -1.18442,-0.40829 -2.57098,-0.70096 -3.95848,-0.8592 -1.38743,-0.15814 -2.77156,-0.18115 -3.95247,-0.0896 -1.18094,0.0915 -2.15397,0.2976 -2.77975,0.56512 -0.62575,0.2674 -0.90045,0.5949 -0.78631,0.91204 0.11432,0.31726 0.61889,0.62229 1.43924,0.84848 0.82031,0.22619 1.95549,0.37188 3.23988,0.39344 1.28437,0.024 2.71485,-0.0824 4.08406,-0.31916 1.36925,-0.23675 2.67276,-0.60646 3.72263,-1.07841 1.04986,-0.47202 1.84157,-1.04561 2.26214,-1.6606 0.42062,-0.61494 0.46677,-1.27013 0.13401,-1.8936 -0.33285,-0.62352 -1.04582,-1.21385 -2.03391,-1.70888 -0.98802,-0.49499 -2.24968,-0.89323 -3.6012,-1.16067 -0.24567,-0.0485 -0.49441,-0.093 -0.74465,-0.13276"
       id="path3421"
       inkscape:export-filename="C:\Users\admin\Desktop\Apunte Acústica\PNG\k.png"
       inkscape:export-xdpi="300"
       inkscape:export-ydpi="300" />
    <path
       inkscape:connector-curvature="0"
       id="path1276"
       d="m 111.42808,21.654576 h 62.8871"
       style="fill:none;stroke:#000000;stroke-width:0.3;stroke-linecap:butt;stroke-linejoin:miter;stroke-miterlimit:4;stroke-dasharray:none;stroke-opacity:1"
       inkscape:export-filename="C:\Users\admin\Desktop\Apunte Acústica\PNG\k.png"
       inkscape:export-xdpi="300"
       inkscape:export-ydpi="300" />
    <path
       inkscape:connector-curvature="0"
       id="path1278"
       d="M 174.31518,21.654577 V 4.351296 h -62.88711 v 17.303281 z"
       style="opacity:0.2;fill:url(#linearGradient1282);fill-opacity:1;stroke:none;stroke-width:0.3;stroke-linecap:butt;stroke-linejoin:miter;stroke-miterlimit:4;stroke-dasharray:none;stroke-opacity:1"
       inkscape:export-filename="C:\Users\admin\Desktop\Apunte Acústica\PNG\k.png"
       inkscape:export-xdpi="300"
       inkscape:export-ydpi="300" />
    <rect
       style="fill:#000000;fill-opacity:0.15;stroke:#000000;stroke-width:0.3;stroke-linecap:square;stroke-linejoin:round;stroke-opacity:1;paint-order:markers fill stroke"
       id="rect1280"
       width="62.887119"
       height="7.3610816"
       x="111.47315"
       y="78.137619"
       inkscape:export-filename="C:\Users\admin\Desktop\Apunte Acústica\PNG\k.png"
       inkscape:export-xdpi="300"
       inkscape:export-ydpi="300" />
    <path
       style="fill:none;stroke:#000000;stroke-width:0.499999;stroke-linecap:butt;stroke-linejoin:round;stroke-miterlimit:4;stroke-dasharray:none;stroke-opacity:1"
       d="m 142.87164,24.654576 v -3"
       id="path1241-8-9"
       inkscape:export-filename="C:\Users\admin\Desktop\Apunte Acústica\PNG\k.png"
       inkscape:export-xdpi="300"
       inkscape:export-ydpi="300" />
    <path
       style="fill:none;stroke:#000000;stroke-width:0.499999;stroke-linecap:butt;stroke-linejoin:round;stroke-miterlimit:4;stroke-dasharray:none;stroke-opacity:1"
       d="m 142.87256,51.082186 v -2.37219"
       id="path1241-8-9-9"
       inkscape:export-filename="C:\Users\admin\Desktop\Apunte Acústica\PNG\k.png"
       inkscape:export-xdpi="300"
       inkscape:export-ydpi="300" />
    <path
       style="fill:none;stroke:#000000;stroke-width:0.499996;stroke-linecap:butt;stroke-linejoin:round;stroke-miterlimit:4;stroke-dasharray:none;stroke-opacity:1"
       d="m 142.87347,78.137616 v -3"
       id="path1241-8-9-3"
       inkscape:export-filename="C:\Users\admin\Desktop\Apunte Acústica\PNG\k.png"
       inkscape:export-xdpi="300"
       inkscape:export-ydpi="300" />
    <path
       inkscape:export-ydpi="300"
       inkscape:export-xdpi="300"
       inkscape:export-filename="C:\Users\admin\Desktop\Apunte Acústica\PNG\k.png"
       inkscape:connector-curvature="0"
       id="path3890-5-9-8"
       d="m 71.776854,72.842956 c 1.376621,-0.219 2.70235,-0.57148 3.7858,-1.02952 1.08342,-0.45813 1.91998,-1.02108 2.39025,-1.63027 0.47027,-0.60919 0.57074,-1.26338 0.289,-1.89087 -0.28169,-0.62754 -0.94695,-1.22684 -1.89743,-1.73445 -0.95054,-0.50764 -2.18511,-0.92214 -3.52384,-1.20713 -1.33871,-0.28513 -2.77818,-0.43945 -4.10987,-0.46438 -1.33175,-0.024 -2.55111,0.0791 -3.48271,0.27412 -0.93155,0.19506 -1.57089,0.48005 -1.82735,0.79053 -0.2563,0.31054 -0.12682,0.64519 0.36748,0.93253 0.49447,0.28707 1.35448,0.52574 2.4538,0.65806 1.09934,0.13228 2.43603,0.15672 3.81568,0.0484 1.37971,-0.10878 2.7985,-0.35223 4.05124,-0.71701 1.2527,-0.36468 2.33471,-0.85139 3.09069,-1.4117 0.75597,-0.5603 1.18176,-1.19347 1.21778,-1.83078 0.0359,-0.63732 -0.32021,-1.27732 -1.01463,-1.85058 -0.69456,-0.57324 -1.72738,-1.07815 -2.94749,-1.46518 -1.2201,-0.38721 -2.6248,-0.65474 -4.01027,-0.78831 -1.38544,-0.13372 -2.74731,-0.13227 -3.88912,-0.0191 -1.14175,0.11212 -2.05877,0.33545 -2.61986,0.61312 -0.56103,0.27794 -0.76243,0.60971 -0.57714,0.92417 0.1853,0.31437 0.75893,0.61006 1.63586,0.82115 0.87695,0.21135 2.0563,0.33643 3.36606,0.33451 1.3097,-0.002 2.74659,-0.13131 4.10244,-0.39202 1.35581,-0.26068 2.62605,-0.6536 3.62777,-1.1438 1.00169,-0.4902 1.73031,-1.07734 2.08214,-1.69919 0.35184,-0.62183 0.32388,-1.27718 -0.0784,-1.89414 -0.40191,-0.61698 -1.17844,-1.19403 -2.21541,-1.67105 -1.037,-0.47683 -2.33272,-0.85251 -3.69865,-1.0958 -1.36591,-0.24296 -2.79831,-0.3532 -4.08995,-0.33834 -1.29163,0.0144 -2.43785,0.15623 -3.27387,0.37812 -0.83608,0.22236 -1.3577,0.52514 -1.49132,0.84167 -0.13346,0.31675 0.12337,0.64522 0.73149,0.91555 0.60825,0.27029 1.56788,0.48072 2.7384,0.5781 1.17055,0.0973 2.54959,0.0805 3.93687,-0.0714 1.38725,-0.15142 2.77864,-0.43801 3.97311,-0.84069 1.19445,-0.40255 2.18736,-0.92112 2.8364,-1.50304 0.6491,-0.58192 0.95044,-1.22639 0.86245,-1.86289 -0.088,-0.63652 -0.56717,-1.26362 -1.36619,-1.81387 -0.79902,-0.55024 -1.91729,-1.02195 -3.1915,-1.37053 -1.27421,-0.3484 -2.70143,-0.57263 -4.07461,-0.66373 -1.37322,-0.091 -2.68806,-0.0489 -3.75488,0.0978 -1.06684,0.14617 -1.88109,0.39584 -2.3266,0.68942 -0.44552,0.29328 -0.51888,0.62945 -0.21164,0.9363 0.30727,0.30671 0.99656,0.58298 1.96603,0.76567 0.96944,0.18257 2.21775,0.27027 3.56316,0.22762 1.34538,-0.0431 2.78429,-0.21613 4.10841,-0.51842 1.32413,-0.30238 2.52885,-0.73307 3.44081,-1.25274 0.91198,-0.51966 1.52683,-1.12756 1.75742,-1.75836 0.23051,-0.63086 0.0742,-1.28331 -0.44477,-1.8861 -0.51888,-0.60276 -1.40055,-1.15426 -2.51566,-1.5981 -1.11517,-0.44377 -2.46172,-0.77861 -3.84393,-0.9795 -1.38217,-0.2008 -2.79609,-0.26741 -4.03736,-0.21279 -1.24124,0.0546 -2.30509,0.22908 -3.03892,0.4754 -0.73383,0.24633 -1.13361,0.56352 -1.1434,0.88225 -0.0107,0.31867 0.37259,0.63761 1.0897,0.88753 0.71718,0.25014 1.7688,0.42939 3.00114,0.48953 1.23238,0.0604 2.64279,1.6e-4 4.02654,-0.19408 1.3838,-0.19409 2.73662,-0.52313 3.8633,-0.96148 1.1267,-0.43849 2.02258,-0.98606 2.55956,-1.58622 0.53695,-0.60023 0.71141,-1.25203 0.50015,-1.88393 -0.21137,-0.63191 -0.80976,-1.2424 -1.70686,-1.76646 -0.89712,-0.5241 -2.09186,-0.96019 -3.41002,-1.26876 -1.31813,-0.30862 -2.75643,-0.48853 -4.10643,-0.5377 -1.35004,-0.0494 -2.60728,0.0336 -3.59063,0.21135 -0.98338,0.17778 -1.68838,0.45094 -2.01479,0.75636 -0.32654,0.30526 -0.27105,0.64162 0.1558,0.93717 0.42694,0.29568 1.22627,0.54866 2.28047,0.70014 1.0542,0.15144 2.36157,0.19986 3.73183,0.1155 1.37029,-0.0844 2.79974,-0.3024 4.08158,-0.64465 1.28181,-0.34216 2.41136,-0.80922 3.22633,-1.35556 0.81495,-0.5463 1.31114,-1.1713 1.41863,-1.80733 0.10767,-0.63607 -0.17601,-1.28173 -0.80782,-1.86676 -0.63167,-0.58509 -1.61144,-1.10787 -2.79584,-1.51627 -1.18442,-0.40829 -2.57098,-0.70096 -3.95848,-0.8592 -1.38743,-0.15814 -2.77156,-0.18115 -3.95247,-0.0896 -1.18094,0.0915 -2.15397,0.2976 -2.77975,0.56512 -0.62575,0.2674 -0.90045,0.5949 -0.78631,0.91204 0.11432,0.31726 0.61889,0.62229 1.43924,0.84848 0.82031,0.22619 1.95549,0.37188 3.23988,0.39344 1.28437,0.024 2.71485,-0.0824 4.08406,-0.31916 1.36925,-0.23675 2.67276,-0.60646 3.72263,-1.07841 1.04986,-0.47202 1.84157,-1.04561 2.26214,-1.6606 0.42062,-0.61494 0.46677,-1.27013 0.13401,-1.8936 -0.33285,-0.62352 -1.04582,-1.21385 -2.03391,-1.70888 -0.98802,-0.49499 -2.24968,-0.89323 -3.6012,-1.16067 -0.24567,-0.0485 -0.49441,-0.093 -0.74465,-0.13276"
       style="fill:none;fill-opacity:1;fill-rule:evenodd;stroke:#000000;stroke-width:0.500002;stroke-linecap:round;stroke-linejoin:round;stroke-miterlimit:4;stroke-dasharray:none;stroke-dashoffset:0;stroke-opacity:1;paint-order:stroke fill markers" />
    <path
       inkscape:export-ydpi="300"
       inkscape:export-xdpi="300"
       inkscape:export-filename="C:\Users\admin\Desktop\Apunte Acústica\PNG\k.png"
       inkscape:connector-curvature="0"
       id="path3890-5-9-8-7"
       d="m 26.784794,72.842956 c 1.37662,-0.219 2.70235,-0.57148 3.785801,-1.02952 1.083419,-0.45813 1.919979,-1.02108 2.390249,-1.63027 0.47027,-0.60919 0.57074,-1.26338 0.289001,-1.89087 -0.28169,-0.62754 -0.946951,-1.22683 -1.89743,-1.73445 -0.95054,-0.50764 -2.18511,-0.92213 -3.52384,-1.20713 -1.33871,-0.28513 -2.77818,-0.43944 -4.10987,-0.46438 -1.33175,-0.024 -2.55111,0.0791 -3.48271,0.27413 -0.93155,0.19505 -1.57089,0.48004 -1.82735,0.79053 -0.2563,0.31053 -0.12682,0.64518 0.36748,0.93252 0.49447,0.28707 1.35448,0.52575 2.4538,0.65807 1.09934,0.13227 2.43603,0.15671 3.81568,0.0484 1.37971,-0.10879 2.7985,-0.35223 4.05124,-0.71701 1.2527,-0.36469 2.33471,-0.85139 3.09069,-1.4117 0.75597,-0.5603 1.18176,-1.19347 1.21778,-1.83078 0.0359,-0.63732 -0.320211,-1.27733 -1.01463,-1.85058 -0.69456,-0.57324 -1.72738,-1.07816 -2.94749,-1.46518 -1.2201,-0.38721 -2.6248,-0.65475 -4.01027,-0.78832 -1.38544,-0.13371 -2.74731,-0.13227 -3.88912,-0.0191 -1.14175,0.11212 -2.05877,0.33545 -2.61986,0.61312 -0.56103,0.27794 -0.76243,0.60971 -0.57714,0.92418 0.1853,0.31437 0.75893,0.61006 1.63586,0.82115 0.87695,0.21134 2.0563,0.33642 3.36606,0.3345 1.3097,-0.002 2.74659,-0.13131 4.10244,-0.39201 1.35581,-0.26069 2.62605,-0.65361 3.62777,-1.14381 1.00169,-0.4902 1.73031,-1.07733 2.08214,-1.69918 0.35184,-0.62184 0.32388,-1.27719 -0.0784,-1.89415 -0.40191,-0.61698 -1.17844,-1.19403 -2.21541,-1.67105 -1.037,-0.47683 -2.33272,-0.8525 -3.69865,-1.09579 -1.36591,-0.24297 -2.79831,-0.3532 -4.08995,-0.33835 -1.29163,0.0144 -2.43785,0.15624 -3.27387,0.37813 -0.83608,0.22235 -1.3577,0.52513 -1.49132,0.84166 -0.13346,0.31675 0.12337,0.64522 0.73149,0.91555 0.60825,0.2703 1.56788,0.48072 2.7384,0.5781 1.17055,0.0973 2.54959,0.0805 3.93687,-0.0714 1.38725,-0.15142 2.77864,-0.43801 3.97311,-0.84069 1.19445,-0.40255 2.18736,-0.92112 2.8364,-1.50304 0.6491,-0.58192 0.95044,-1.22639 0.86245,-1.86289 -0.088,-0.63652 -0.56717,-1.26362 -1.36619,-1.81387 -0.79902,-0.55024 -1.91729,-1.02195 -3.1915,-1.37053 -1.27421,-0.3484 -2.70143,-0.57263 -4.07461,-0.66373 -1.37322,-0.091 -2.68806,-0.0489 -3.75488,0.0978 -1.06684,0.14617 -1.88109,0.39584 -2.3266,0.68942 -0.44552,0.29328 -0.51888,0.62945 -0.21164,0.9363 0.30727,0.30671 0.99656,0.58298 1.96603,0.76567 0.96944,0.18257 2.21775,0.27027 3.56316,0.22762 1.34538,-0.0431 2.78429,-0.21613 4.10841,-0.51842 1.32413,-0.30238 2.52885,-0.73307 3.44081,-1.25274 0.91198,-0.51966 1.52683,-1.12756 1.75742,-1.75836 0.23051,-0.63086 0.0742,-1.28331 -0.44477,-1.8861 -0.51888,-0.60276 -1.40055,-1.15426 -2.51566,-1.5981 -1.11517,-0.44377 -2.46172,-0.77861 -3.84393,-0.9795 -1.38217,-0.2008 -2.79609,-0.26741 -4.03736,-0.21279 -1.24124,0.0546 -2.30509,0.22908 -3.03892,0.4754 -0.73383,0.24633 -1.13361,0.56352 -1.1434,0.88225 -0.0107,0.31867 0.37259,0.63761 1.0897,0.88753 0.71718,0.25014 1.7688,0.42939 3.00114,0.48953 1.23238,0.0604 2.64279,1.6e-4 4.02654,-0.19408 1.3838,-0.19409 2.73662,-0.52313 3.8633,-0.96148 1.1267,-0.43849 2.02258,-0.98606 2.55956,-1.58622 0.53695,-0.60023 0.71141,-1.25203 0.50015,-1.88393 -0.21137,-0.63191 -0.80976,-1.2424 -1.70686,-1.76646 -0.89712,-0.5241 -2.09186,-0.96019 -3.41002,-1.26876 -1.31813,-0.30862 -2.75643,-0.48853 -4.10643,-0.5377 -1.35004,-0.0494 -2.60728,0.0336 -3.59063,0.21135 -0.98338,0.17778 -1.68838,0.45094 -2.01479,0.75636 -0.32654,0.30526 -0.27105,0.64162 0.1558,0.93717 0.42694,0.29568 1.22627,0.54866 2.28047,0.70014 1.0542,0.15144 2.36157,0.19986 3.73183,0.1155 1.37029,-0.0844 2.79974,-0.3024 4.08158,-0.64465 1.28181,-0.34216 2.41136,-0.80922 3.22633,-1.35556 0.81495,-0.5463 1.31114,-1.1713 1.41863,-1.80733 0.10767,-0.63607 -0.17601,-1.28173 -0.80782,-1.86676 -0.63167,-0.58509 -1.61144,-1.10787 -2.79584,-1.51627 -1.18442,-0.40829 -2.57098,-0.70096 -3.95848,-0.8592 -1.38743,-0.15814 -2.77156,-0.18115 -3.95247,-0.0896 -1.18094,0.0915 -2.15397,0.2976 -2.77975,0.56512 -0.62575,0.2674 -0.90045,0.5949 -0.78631,0.91204 0.11432,0.31726 0.61889,0.62229 1.43924,0.84848 0.82031,0.22619 1.95549,0.37188 3.23988,0.39344 1.28437,0.024 2.71485,-0.0824 4.08406,-0.31916 1.36925,-0.23675 2.67276,-0.60646 3.72263,-1.07841 1.04986,-0.47202 1.84157,-1.04561 2.26214,-1.6606 0.42062,-0.61494 0.46677,-1.27013 0.13401,-1.8936 -0.33285,-0.62352 -1.04582,-1.21385 -2.03391,-1.70888 -0.98802,-0.49499 -2.24968,-0.89323 -3.6012,-1.16067 -0.24567,-0.0485 -0.49441,-0.093 -0.74465,-0.13276"
       style="fill:none;fill-opacity:1;fill-rule:evenodd;stroke:#000000;stroke-width:0.500002;stroke-linecap:round;stroke-linejoin:round;stroke-miterlimit:4;stroke-dasharray:none;stroke-dashoffset:0;stroke-opacity:1;paint-order:stroke fill markers" />
    <path
       inkscape:connector-curvature="0"
       id="path2536-4-8"
       d="M 5.6397146,21.654576 H 92.965135"
       style="fill:none;stroke:#000000;stroke-width:0.3;stroke-linecap:butt;stroke-linejoin:miter;stroke-miterlimit:4;stroke-dasharray:none;stroke-opacity:1"
       inkscape:export-filename="C:\Users\admin\Desktop\Apunte Acústica\PNG\k.png"
       inkscape:export-xdpi="300"
       inkscape:export-ydpi="300" />
    <path
       inkscape:connector-curvature="0"
       id="path1000-6-8-3"
       d="M 92.965135,21.654577 V 4.351296 H 5.6397046 v 17.303281 z"
       style="opacity:0.2;fill:url(#linearGradient4220);fill-opacity:1;stroke:none;stroke-width:0.3;stroke-linecap:butt;stroke-linejoin:miter;stroke-miterlimit:4;stroke-dasharray:none;stroke-opacity:1"
       inkscape:export-filename="C:\Users\admin\Desktop\Apunte Acústica\PNG\k.png"
       inkscape:export-xdpi="300"
       inkscape:export-ydpi="300" />
    <rect
       style="fill:#000000;fill-opacity:0.15;stroke:#000000;stroke-width:0.3;stroke-linecap:square;stroke-linejoin:round;stroke-opacity:1;paint-order:markers fill stroke"
       id="rect1224"
       width="87.325417"
       height="7.3610816"
       x="5.63973"
       y="78.137619"
       inkscape:export-filename="C:\Users\admin\Desktop\Apunte Acústica\PNG\k.png"
       inkscape:export-xdpi="300"
       inkscape:export-ydpi="300" />
    <path
       style="fill:none;stroke:#000000;stroke-width:0.5;stroke-linecap:butt;stroke-linejoin:round;stroke-miterlimit:4;stroke-dasharray:none;stroke-opacity:1"
       d="m 26.806394,26.946246 v -5.29167"
       id="path1241"
       inkscape:export-filename="C:\Users\admin\Desktop\Apunte Acústica\PNG\k.png"
       inkscape:export-xdpi="300"
       inkscape:export-ydpi="300" />
    <path
       style="fill:none;stroke:#000000;stroke-width:0.499999;stroke-linecap:butt;stroke-linejoin:round;stroke-miterlimit:4;stroke-dasharray:none;stroke-opacity:1"
       d="m 71.798455,26.946246 v -5.29167"
       id="path1241-8"
       inkscape:export-filename="C:\Users\admin\Desktop\Apunte Acústica\PNG\k.png"
       inkscape:export-xdpi="300"
       inkscape:export-ydpi="300" />
    <path
       style="fill:none;stroke:#000000;stroke-width:0.499999;stroke-linecap:butt;stroke-linejoin:round;stroke-miterlimit:4;stroke-dasharray:none;stroke-opacity:1"
       d="m 26.784794,78.134626 v -5.29167"
       id="path1241-5"
       inkscape:export-filename="C:\Users\admin\Desktop\Apunte Acústica\PNG\k.png"
       inkscape:export-xdpi="300"
       inkscape:export-ydpi="300" />
    <path
       style="fill:none;stroke:#000000;stroke-width:0.499999;stroke-linecap:butt;stroke-linejoin:round;stroke-miterlimit:4;stroke-dasharray:none;stroke-opacity:1"
       d="m 71.776854,78.134626 v -5.29167"
       id="path1241-8-1"
       inkscape:export-filename="C:\Users\admin\Desktop\Apunte Acústica\PNG\k.png"
       inkscape:export-xdpi="300"
       inkscape:export-ydpi="300" />
    <path
       style="fill:none;fill-opacity:1;fill-rule:evenodd;stroke:#000000;stroke-width:0.500002;stroke-linecap:round;stroke-linejoin:round;stroke-miterlimit:4;stroke-dasharray:none;stroke-dashoffset:0;stroke-opacity:1;paint-order:stroke fill markers"
       d="m 142.87347,75.137616 c 0.43954,-0.0702 0.87416,-0.15351 1.29706,-0.25006 1.32413,-0.30238 2.52885,-0.73307 3.44081,-1.25274 0.91198,-0.51966 1.52683,-1.12756 1.75742,-1.75836 0.23051,-0.63086 0.0742,-1.28331 -0.44477,-1.8861 -0.51888,-0.60276 -1.40055,-1.15426 -2.51566,-1.5981 -1.11517,-0.44377 -2.46172,-0.77861 -3.84393,-0.9795 -1.38217,-0.2008 -2.79609,-0.26741 -4.03736,-0.21279 -1.24124,0.0546 -2.30508,0.22908 -3.03891,0.4754 -0.73383,0.24633 -1.13361,0.56352 -1.1434,0.88225 -0.0107,0.31867 0.37259,0.63761 1.0897,0.88753 0.71718,0.25014 1.76879,0.42939 3.00113,0.48953 1.23238,0.0604 2.64279,1.6e-4 4.02654,-0.19408 1.3838,-0.19409 2.73662,-0.52313 3.8633,-0.96148 1.1267,-0.43849 2.02258,-0.98606 2.55956,-1.58622 0.53695,-0.60023 0.71141,-1.25203 0.50015,-1.88393 -0.21137,-0.63191 -0.80976,-1.2424 -1.70686,-1.76646 -0.89712,-0.5241 -2.09186,-0.96019 -3.41002,-1.26876 -1.31813,-0.30862 -2.75643,-0.48853 -4.10643,-0.5377 -1.35004,-0.0494 -2.60728,0.0336 -3.59062,0.21135 -0.98338,0.17778 -1.68838,0.45094 -2.01479,0.75636 -0.32654,0.30526 -0.27105,0.64162 0.1558,0.93717 0.42694,0.29568 1.22627,0.54866 2.28047,0.70014 1.05419,0.15144 2.36156,0.19986 3.73182,0.1155 1.37029,-0.0844 2.79974,-0.3024 4.08158,-0.64465 1.28181,-0.34216 2.41136,-0.80922 3.22633,-1.35556 0.81495,-0.5463 1.31114,-1.1713 1.41863,-1.80733 0.10767,-0.63607 -0.17601,-1.28173 -0.80782,-1.86676 -0.63167,-0.5851 -1.61144,-1.10788 -2.79584,-1.51628 -1.18442,-0.40829 -2.57098,-0.70096 -3.95848,-0.8592 -1.38743,-0.15814 -2.77156,-0.18115 -3.95247,-0.0896 -1.18093,0.0915 -2.15396,0.2976 -2.77974,0.56512 -0.62575,0.2674 -0.90045,0.5949 -0.78631,0.91204 0.11432,0.31726 0.61889,0.62229 1.43924,0.84848 0.82031,0.22619 1.95548,0.37188 3.23987,0.39344 1.28437,0.024 2.71485,-0.0824 4.08406,-0.31916 1.36925,-0.23675 2.67276,-0.60646 3.72263,-1.07841 1.04986,-0.47202 1.84157,-1.04561 2.26214,-1.6606 0.42062,-0.61494 0.46677,-1.27013 0.13401,-1.8936 -0.33285,-0.62352 -1.04582,-1.21385 -2.03391,-1.70888 -0.98802,-0.49499 -2.24968,-0.89323 -3.6012,-1.16067 -0.24567,-0.0485 -0.49441,-0.093 -0.74465,-0.13276"
       id="path3682"
       inkscape:export-filename="C:\Users\admin\Desktop\Apunte Acústica\PNG\k.png"
       inkscape:export-xdpi="300"
       inkscape:export-ydpi="300" />
    <text
       xml:space="preserve"
       style="font-style:normal;font-weight:normal;font-size:6.10737px;line-height:1.25;font-family:sans-serif;fill:#000000;fill-opacity:1;stroke:none;stroke-width:0.264583"
       x="4.8366671"
       y="52.647301"
       id="text1094"><tspan
         sodipodi:role="line"
         id="tspan1092"
         style="stroke-width:0.264583"
         x="4.8366671"
         y="52.647301">$k_1$</tspan></text>
    <text
       xml:space="preserve"
       style="font-style:normal;font-weight:normal;font-size:6.10737px;line-height:1.25;font-family:sans-serif;fill:#000000;fill-opacity:1;stroke:none;stroke-width:0.264583"
       x="49.286667"
       y="52.647301"
       id="text1867"><tspan
         sodipodi:role="line"
         id="tspan1865"
         style="stroke-width:0.264583"
         x="49.286667"
         y="52.647301">$k_2$</tspan></text>
    <text
       xml:space="preserve"
       style="font-style:normal;font-weight:normal;font-size:6.10737px;line-height:1.25;font-family:sans-serif;fill:#000000;fill-opacity:1;stroke:none;stroke-width:0.264583"
       x="118.46636"
       y="38.324135"
       id="text1094-9"><tspan
         sodipodi:role="line"
         id="tspan1092-6"
         style="stroke-width:0.264583"
         x="118.46636"
         y="38.324135">$k_1$</tspan></text>
    <text
       xml:space="preserve"
       style="font-style:normal;font-weight:normal;font-size:6.10737px;line-height:1.25;font-family:sans-serif;fill:#000000;fill-opacity:1;stroke:none;stroke-width:0.264583"
       x="118.46636"
       y="65.311638"
       id="text2160"><tspan
         sodipodi:role="line"
         id="tspan2158"
         style="stroke-width:0.264583"
         x="118.46636"
         y="65.311638">$k_2$</tspan></text>
    <text
       xml:space="preserve"
       style="font-style:normal;font-weight:normal;font-size:6.10737px;line-height:1.25;font-family:sans-serif;fill:#000000;fill-opacity:1;stroke:none;stroke-width:0.264583"
       x="137.25179"
       y="83.303291"
       id="text2160-3"><tspan
         sodipodi:role="line"
         id="tspan2158-6"
         style="stroke-width:0.264583"
         x="137.25179"
         y="83.303291">$m$</tspan></text>
    <text
       xml:space="preserve"
       style="font-style:normal;font-weight:normal;font-size:6.10737px;line-height:1.25;font-family:sans-serif;fill:#000000;fill-opacity:1;stroke:none;stroke-width:0.264583"
       x="46.235138"
       y="83.303291"
       id="text2555"><tspan
         sodipodi:role="line"
         id="tspan2553"
         style="stroke-width:0.264583"
         x="46.235138"
         y="83.303291">$m$</tspan></text>
  </g>
</svg>
