<?xml version="1.0" encoding="UTF-8" standalone="no"?>
<!-- Created with Inkscape (http://www.inkscape.org/) -->

<svg
   width="160mm"
   height="100mm"
   viewBox="0 0 160 100"
   version="1.1"
   id="svg2206"
   inkscape:version="1.1 (c68e22c387, 2021-05-23)"
   sodipodi:docname="pressure-waveform.svg"
   xmlns:inkscape="http://www.inkscape.org/namespaces/inkscape"
   xmlns:sodipodi="http://sodipodi.sourceforge.net/DTD/sodipodi-0.dtd"
   xmlns:xlink="http://www.w3.org/1999/xlink"
   xmlns="http://www.w3.org/2000/svg"
   xmlns:svg="http://www.w3.org/2000/svg">
  <sodipodi:namedview
     id="namedview2208"
     pagecolor="#ffffff"
     bordercolor="#666666"
     borderopacity="1.0"
     inkscape:pageshadow="2"
     inkscape:pageopacity="0.0"
     inkscape:pagecheckerboard="0"
     inkscape:document-units="mm"
     showgrid="false"
     inkscape:zoom="1.3416246"
     inkscape:cx="266.84067"
     inkscape:cy="162.11689"
     inkscape:window-width="1920"
     inkscape:window-height="1001"
     inkscape:window-x="-9"
     inkscape:window-y="-9"
     inkscape:window-maximized="1"
     inkscape:current-layer="layer1" />
  <defs
     id="defs2203">
    <linearGradient
       inkscape:collect="always"
       xlink:href="#linearGradient1879"
       id="linearGradient1160"
       x1="142.90515"
       y1="120.43419"
       x2="160.85616"
       y2="120.43419"
       gradientUnits="userSpaceOnUse"
       gradientTransform="translate(-21.456237,-84.913244)" />
    <linearGradient
       inkscape:collect="always"
       id="linearGradient1879">
      <stop
         style="stop-color:#000000;stop-opacity:1;"
         offset="0"
         id="stop1875" />
      <stop
         style="stop-color:#000000;stop-opacity:0;"
         offset="1"
         id="stop1877" />
    </linearGradient>
  </defs>
  <g
     inkscape:label="Layer 1"
     inkscape:groupmode="layer"
     id="layer1">
    <path
       style="fill:none;stroke:#000000;stroke-width:0.5;stroke-linecap:round;stroke-linejoin:round;stroke-miterlimit:4;stroke-dasharray:none;stroke-opacity:1"
       d="M 8.1746334,84.955226 H 148.27663"
       id="path975"
       inkscape:export-xdpi="300"
       inkscape:export-ydpi="300"
       inkscape:export-filename="C:\Users\mrmal\Desktop\RFB\Apunte IAP\PNG\Waveform.png" />
    <path
       style="fill:none;stroke:#000000;stroke-width:0.5;stroke-linecap:round;stroke-linejoin:round;stroke-miterlimit:4;stroke-dasharray:none;stroke-opacity:1"
       d="M 23.419083,8.3938156 V 97.118886"
       id="path977"
       inkscape:export-xdpi="300"
       inkscape:export-ydpi="300"
       inkscape:export-filename="C:\Users\mrmal\Desktop\RFB\Apunte IAP\PNG\Waveform.png" />
    <path
       style="fill:none;stroke:#000000;stroke-width:0.3;stroke-linecap:round;stroke-linejoin:round;stroke-miterlimit:4;stroke-dasharray:1.8, 1.8;stroke-dashoffset:0;stroke-opacity:1"
       d="M 23.419083,38.464126 H 139.40485"
       id="path979"
       inkscape:export-xdpi="300"
       inkscape:export-ydpi="300"
       inkscape:export-filename="C:\Users\mrmal\Desktop\RFB\Apunte IAP\PNG\Waveform.png" />
    <path
       style="fill:none;stroke:#000000;stroke-width:0.3;stroke-linecap:round;stroke-linejoin:round;stroke-miterlimit:4;stroke-dasharray:1.8, 1.8;stroke-dashoffset:0;stroke-opacity:1"
       d="M 23.419083,70.214146 H 139.40485"
       id="path1086"
       inkscape:export-xdpi="300"
       inkscape:export-ydpi="300"
       inkscape:export-filename="C:\Users\mrmal\Desktop\RFB\Apunte IAP\PNG\Waveform.png" />
    <path
       sodipodi:nodetypes="cccc"
       inkscape:connector-curvature="0"
       id="path872-8"
       d="m 23.419083,8.3938156 h -1.31852 c 0,0 1.0788,-0.67126 1.31852,-5.13025 0.23972,4.45899 1.31852,5.13025 1.31852,5.13025 z"
       style="fill:#000000;fill-opacity:1;stroke:#000000;stroke-width:0.264999;stroke-linecap:round;stroke-linejoin:round;stroke-miterlimit:4;stroke-dasharray:none;stroke-opacity:1"
       inkscape:export-filename="C:\Users\mrmal\Desktop\RFB\Apunte IAP\PNG\Waveform.png"
       inkscape:export-xdpi="300"
       inkscape:export-ydpi="300" />
    <path
       sodipodi:nodetypes="cccc"
       inkscape:connector-curvature="0"
       id="path872-9"
       d="m 148.27663,84.955226 v -1.31852 c 0,0 0.67126,1.0788 5.13025,1.31852 -4.45899,0.23972 -5.13025,1.31852 -5.13025,1.31852 z"
       style="fill:#000000;fill-opacity:1;stroke:#000000;stroke-width:0.264999;stroke-linecap:round;stroke-linejoin:round;stroke-miterlimit:4;stroke-dasharray:none;stroke-opacity:1"
       inkscape:export-filename="C:\Users\mrmal\Desktop\RFB\Apunte IAP\PNG\Waveform.png"
       inkscape:export-xdpi="300"
       inkscape:export-ydpi="300" />
    <path
       style="fill:none;stroke:#000000;stroke-width:0.5;stroke-linecap:round;stroke-linejoin:round;stroke-miterlimit:4;stroke-dasharray:none;stroke-opacity:1"
       d="m 23.419083,38.464126 c 0,0 0.75595,-10.25326 1.65364,0 0.8977,10.25325 1.51191,0 1.51191,0 0,0 1.65364,-40.8577104 3.35454,0 0,0 0.34034,13.28778 1.27579,0 0.93544,-13.28777 2.14961,0 2.14961,0 0,0 1.12444,10.81614 1.95966,0 0.83521,-10.81613 1.87088,-18.12953 2.3386,0 0.46773,18.12954 0.735,11.53852 1.23612,8.95702 0.50114,-2.5815 0.93545,-5.27285 2.17157,1.53789 1.23612,6.81075 2.00452,-10.49491 2.00452,-10.49491"
       id="path1127-6"
       inkscape:export-filename="C:\Users\mrmal\Desktop\RFB\Apunte IAP\PNG\Waveform.png"
       inkscape:export-xdpi="300"
       inkscape:export-ydpi="300" />
    <path
       style="fill:none;stroke:#000000;stroke-width:0.5;stroke-linecap:round;stroke-linejoin:round;stroke-miterlimit:4;stroke-dasharray:none;stroke-opacity:1"
       d="m 43.075043,38.464126 c 0,0 0.75595,-10.25326 1.65365,0 0.89769,10.25325 1.5119,0 1.5119,0 0,0 1.65365,-40.8577104 3.35454,0 0,0 0.34035,13.28778 1.27579,0 0.93545,-13.28777 2.14962,0 2.14962,0 0,0 1.12443,10.81614 1.95965,0 0.83522,-10.81613 1.87089,-18.12953 2.33861,0 0.46772,18.12954 0.73499,11.53852 1.23612,8.95702 0.50113,-2.5815 0.93544,-5.27285 2.17156,1.53789 1.23612,6.81075 2.00452,-10.49491 2.00452,-10.49491"
       id="path1144"
       inkscape:export-filename="C:\Users\mrmal\Desktop\RFB\Apunte IAP\PNG\Waveform.png"
       inkscape:export-xdpi="300"
       inkscape:export-ydpi="300" />
    <path
       style="fill:none;stroke:#000000;stroke-width:0.5;stroke-linecap:round;stroke-linejoin:round;stroke-miterlimit:4;stroke-dasharray:none;stroke-opacity:1"
       d="m 62.731003,38.464126 c 0,0 0.75595,-10.25326 1.65365,0 0.89769,10.25325 1.5119,0 1.5119,0 0,0 1.65365,-40.8577104 3.35454,0 0,0 0.34035,13.28778 1.27579,0 0.93545,-13.28777 2.14962,0 2.14962,0 0,0 1.12443,10.81614 1.95965,0 0.83522,-10.81613 1.87089,-18.12953 2.33861,0 0.46772,18.12954 0.73499,11.53852 1.23612,8.95702 0.50114,-2.5815 0.93545,-5.27285 2.17157,1.53789 1.23612,6.81075 2.00452,-10.49491 2.00452,-10.49491"
       id="path1146"
       inkscape:export-filename="C:\Users\mrmal\Desktop\RFB\Apunte IAP\PNG\Waveform.png"
       inkscape:export-xdpi="300"
       inkscape:export-ydpi="300" />
    <path
       style="fill:none;stroke:#000000;stroke-width:0.5;stroke-linecap:round;stroke-linejoin:round;stroke-miterlimit:4;stroke-dasharray:none;stroke-opacity:1"
       d="m 82.386973,38.464126 c 0,0 0.75595,-10.25326 1.65364,0 0.8977,10.25325 1.51191,0 1.51191,0 0,0 1.65364,-40.8577104 3.35454,0 0,0 0.34035,13.28778 1.27579,0 0.93545,-13.28777 2.14962,0 2.14962,0 0,0 1.12443,10.81614 1.95965,0 0.83522,-10.81613 1.87089,-18.12953 2.33861,0 0.46772,18.12954 0.73499,11.53852 1.23612,8.95702 0.50114,-2.5815 0.93545,-5.27285 2.171567,1.53789 1.23612,6.81075 2.00452,-10.49491 2.00452,-10.49491"
       id="path1148"
       inkscape:export-filename="C:\Users\mrmal\Desktop\RFB\Apunte IAP\PNG\Waveform.png"
       inkscape:export-xdpi="300"
       inkscape:export-ydpi="300" />
    <path
       style="fill:none;stroke:#000000;stroke-width:0.5;stroke-linecap:round;stroke-linejoin:round;stroke-miterlimit:4;stroke-dasharray:none;stroke-opacity:1"
       d="m 102.04294,38.464126 c 0,0 0.75595,-10.25326 1.65364,0 0.8977,10.25325 1.51191,0 1.51191,0 0,0 1.65364,-40.8577104 3.35454,0 0,0 0.34035,13.28778 1.27579,0 0.93545,-13.28777 2.14962,0 2.14962,0 0,0 1.12443,10.81614 1.95965,0 0.83522,-10.81613 1.87089,-18.12953 2.33861,0 0.46772,18.12954 0.73499,11.53852 1.23612,8.95702 0.50114,-2.5815 0.93545,-5.27285 2.17157,1.53789 1.23612,6.81075 2.00452,-10.49491 2.00452,-10.49491"
       id="path1150"
       inkscape:export-filename="C:\Users\mrmal\Desktop\RFB\Apunte IAP\PNG\Waveform.png"
       inkscape:export-xdpi="300"
       inkscape:export-ydpi="300" />
    <path
       style="fill:none;stroke:url(#linearGradient1160);stroke-width:0.5;stroke-linecap:round;stroke-linejoin:round;stroke-miterlimit:4;stroke-dasharray:none;stroke-opacity:1"
       d="m 121.69891,38.464126 c 0,0 0.75595,-10.25326 1.65364,0 0.8977,10.25325 1.51191,0 1.51191,0 0,0 1.65364,-40.8577104 3.35454,0 0,0 0.34035,13.28778 1.27579,0 0.93545,-13.28777 2.14962,0 2.14962,0 0,0 1.12443,10.81614 1.95965,0 0.83522,-10.81613 1.87089,-18.12953 2.33861,0 0.46772,18.12954 0.73499,11.53852 1.23612,8.95702 0.50114,-2.5815 0.93545,-5.27285 2.17157,1.53789 1.23612,6.81075 2.00452,-10.49491 2.00452,-10.49491"
       id="path1152"
       inkscape:export-filename="C:\Users\mrmal\Desktop\RFB\Apunte IAP\PNG\Waveform.png"
       inkscape:export-xdpi="300"
       inkscape:export-ydpi="300" />
    <path
       style="fill:none;stroke:#000000;stroke-width:0.1;stroke-linecap:round;stroke-linejoin:round;stroke-miterlimit:4;stroke-dasharray:none;stroke-dashoffset:0;stroke-opacity:1"
       d="m 43.075043,38.464126 v 46.4911"
       id="path1086-9"
       inkscape:export-xdpi="300"
       inkscape:export-ydpi="300"
       inkscape:export-filename="C:\Users\mrmal\Desktop\RFB\Apunte IAP\PNG\Waveform.png" />
    <path
       style="fill:none;stroke:#000000;stroke-width:0.1;stroke-linecap:round;stroke-linejoin:round;stroke-miterlimit:4;stroke-dasharray:none;stroke-dashoffset:0;stroke-opacity:1"
       d="M 139.40485,30.700206 H 23.419083"
       id="path1086-9-7"
       inkscape:export-xdpi="300"
       inkscape:export-ydpi="300"
       inkscape:export-filename="C:\Users\mrmal\Desktop\RFB\Apunte IAP\PNG\Waveform.png" />
    <path
       style="fill:none;stroke:#000000;stroke-width:0.1;stroke-linecap:round;stroke-linejoin:round;stroke-miterlimit:4;stroke-dasharray:none;stroke-dashoffset:0;stroke-opacity:1"
       d="M 139.40485,20.081776 H 23.419083"
       id="path1076"
       inkscape:export-xdpi="300"
       inkscape:export-ydpi="300"
       inkscape:export-filename="C:\Users\mrmal\Desktop\RFB\Apunte IAP\PNG\Waveform.png" />
    <text
       xml:space="preserve"
       style="font-style:normal;font-weight:normal;font-size:4.28328px;line-height:1.25;font-family:sans-serif;fill:#000000;fill-opacity:1;stroke:none;stroke-width:0.264583"
       x="3.4349704"
       y="9.153924"
       id="text1161"><tspan
         sodipodi:role="line"
         id="tspan1159"
         style="stroke-width:0.264583"
         x="3.4349704"
         y="9.153924"
         dy="0 0 0 0 0 0 0 0 0 0 0.23944601">$\fx[p]{t}$</tspan></text>
    <text
       xml:space="preserve"
       style="font-style:normal;font-weight:normal;font-size:4.28328px;line-height:1.25;font-family:sans-serif;fill:#000000;fill-opacity:1;stroke:none;stroke-width:0.264583"
       x="145.78888"
       y="80.035294"
       id="text1161-8"><tspan
         sodipodi:role="line"
         id="tspan1159-6"
         style="stroke-width:0.264583"
         x="145.78888"
         y="80.035294"
         dy="0 0 0.23944601">$t$</tspan></text>
    <text
       xml:space="preserve"
       style="font-style:normal;font-weight:normal;font-size:4.28328px;line-height:1.25;font-family:sans-serif;fill:#000000;fill-opacity:1;stroke:none;stroke-width:0.264583"
       x="40.003109"
       y="91.079117"
       id="text1161-8-3"><tspan
         sodipodi:role="line"
         id="tspan1159-6-3"
         style="stroke-width:0.264583"
         x="40.003109"
         y="91.079117"
         dy="0 0 0.23944601">$T$</tspan></text>
    <text
       xml:space="preserve"
       style="font-style:normal;font-weight:normal;font-size:4.28328px;line-height:1.25;font-family:sans-serif;fill:#000000;fill-opacity:1;stroke:none;stroke-width:0.264583"
       x="141.45024"
       y="31.424238"
       id="text2035"><tspan
         sodipodi:role="line"
         id="tspan2033"
         style="stroke-width:0.264583"
         x="141.45024"
         y="31.424238"
         dy="0 0 0 0 0 0 0 0 0.83107948">$\rms{p}$</tspan></text>
    <text
       xml:space="preserve"
       style="font-style:normal;font-weight:normal;font-size:4.28328px;line-height:1.25;font-family:sans-serif;fill:#000000;fill-opacity:1;stroke:none;stroke-width:0.264583"
       x="4.6905074"
       y="71.259399"
       id="text2035-6"><tspan
         sodipodi:role="line"
         id="tspan2033-6"
         style="stroke-width:0.264583"
         x="4.6905074"
         y="71.259399"
         dy="0 0 0 0 0 0 0 0 0 0 0 0 0 1.2255018">$\sub{p}{ref}$</tspan></text>
    <text
       xml:space="preserve"
       style="font-style:normal;font-weight:normal;font-size:4.28328px;line-height:1.25;font-family:sans-serif;fill:#000000;fill-opacity:1;stroke:none;stroke-width:0.264583"
       x="141.45024"
       y="20.840906"
       id="text2221"><tspan
         sodipodi:role="line"
         id="tspan2219"
         style="stroke-width:0.264583"
         x="141.45024"
         y="20.840906"
         dy="0 0 0 0 0 0 0 0 0 0.83107948">$\peak{p}$</tspan></text>
    <text
       xml:space="preserve"
       style="font-style:normal;font-weight:normal;font-size:4.28328px;line-height:1.25;font-family:sans-serif;fill:#000000;fill-opacity:1;stroke:none;stroke-width:0.264583"
       x="8.4375191"
       y="39.509396"
       id="text3408"><tspan
         sodipodi:role="line"
         id="tspan3406"
         style="stroke-width:0.264583"
         x="8.4375191"
         y="39.509396"
         dy="0 0 0 0 1.2255018">$p_0$</tspan></text>
  </g>
</svg>
