<?xml version="1.0" encoding="UTF-8" standalone="no"?>
<!-- Created with Inkscape (http://www.inkscape.org/) -->

<svg
   width="160mm"
   height="120mm"
   viewBox="0 0 160 120"
   version="1.1"
   id="svg7508"
   inkscape:version="1.1 (c68e22c387, 2021-05-23)"
   sodipodi:docname="vib-transmisibilidad-nivel.svg"
   xmlns:inkscape="http://www.inkscape.org/namespaces/inkscape"
   xmlns:sodipodi="http://sodipodi.sourceforge.net/DTD/sodipodi-0.dtd"
   xmlns="http://www.w3.org/2000/svg"
   xmlns:svg="http://www.w3.org/2000/svg">
  <sodipodi:namedview
     id="namedview7510"
     pagecolor="#ffffff"
     bordercolor="#666666"
     borderopacity="1.0"
     inkscape:pageshadow="2"
     inkscape:pageopacity="0.0"
     inkscape:pagecheckerboard="0"
     inkscape:document-units="mm"
     showgrid="false"
     inkscape:zoom="0.94867184"
     inkscape:cx="298.83885"
     inkscape:cy="284.08137"
     inkscape:window-width="1366"
     inkscape:window-height="705"
     inkscape:window-x="-8"
     inkscape:window-y="-8"
     inkscape:window-maximized="1"
     inkscape:current-layer="layer1" />
  <defs
     id="defs7505">
    <rect
       x="-153.9875"
       y="-514.34998"
       width="412.75"
       height="50.270832"
       id="rect12998" />
  </defs>
  <g
     inkscape:label="Layer 1"
     inkscape:groupmode="layer"
     id="layer1">
    <text
       xml:space="preserve"
       id="text12996"
       style="font-size:10.5833px;line-height:1.25;font-family:'CMU Classical Serif';-inkscape-font-specification:'CMU Classical Serif';white-space:pre;shape-inside:url(#rect12998);opacity:0.2;stroke-width:1.48994"
       transform="matrix(0.4504673,0,0,1,70.628424,490.40481)"><tspan
         x="-153.98828"
         y="-504.56212"
         id="tspan7397">log(sqrt((1+(2*0.1*x)*(2*0.1*x))/((1-x*x)*(1-x*x)+(2*0.1*x)*(2*0.1*x))))</tspan></text>
    <path
       style="fill:none;stroke:#000000;stroke-width:0.3;stroke-linecap:round;stroke-linejoin:round;stroke-opacity:1;paint-order:markers fill stroke"
       d="m 27.932231,60 c 0.483,0 0.966,-0.019 1.449,-0.055 0.483,-0.037 0.966,-0.093 1.449,-0.168 0.483,-0.074 0.966,-0.168 1.449,-0.283 0.48301,-0.115 0.96601,-0.25 1.44901,-0.409 0.483,-0.158 0.96599,-0.339 1.44899,-0.546 0.483,-0.206 0.966,-0.439 1.44899,-0.702 0.483,-0.263 0.966,-0.556 1.449,-0.885 0.483,-0.33 0.96599,-0.696 1.44899,-1.108 0.483,-0.413 0.966,-0.871 1.44899,-1.391 0.483,-0.52 0.966,-1.101 1.448998,-1.768 0.482997,-0.667 0.965995,-1.42 1.448992,-2.306 0.483,-0.886 0.966,-1.903 1.44899,-3.153 0.483,-1.25 0.966,-2.717 1.449,-4.703 0.483,-1.986 0.96599,-4.314 1.44899,-8.581 0.483,-4.267 0.966,-32.224 1.44899,-19.422 0.483,12.801 0.966,18.888 1.449,22.656 0.483,3.769 0.96599,6.151 1.44899,8.209 0.48298,2.058 0.96598,3.685 1.44898,5.12 0.483,1.435 0.966,2.664 1.449,3.776 0.483,1.113 0.966,2.105 1.449,3.02 0.483,0.915 0.966,1.751 1.449,2.531 0.483,0.781 0.966,1.506 1.449,2.19 0.483,0.684 0.966,1.326 1.449,1.937 0.483,0.61 0.966,1.188 1.449,1.74 0.483,0.552 0.966,1.078 1.449,1.584 0.483,0.505 0.966,0.989 1.449,1.455 0.483,0.467 0.966,0.916 1.449,1.349 0.483,0.434 0.966,0.853 1.4489,1.258 0.483,0.406 0.966,0.799 1.449,1.181 0.483,0.381 0.966,0.751 1.449,1.112 0.483,0.36 0.966,0.71 1.449,1.052 0.483,0.342 0.966,0.674 1.449,0.999 0.483,0.325 0.966,0.642 1.449,0.952 0.483,0.31 0.966,0.613 1.449,0.909 0.483,0.297 0.966,0.586 1.449,0.871 0.483,0.284 0.966,0.562 1.449,0.835 0.483,0.273 0.966,0.54 1.449,0.803 0.483,0.262 0.966,0.52 1.449,0.773 0.483,0.253 0.966,0.502 1.449,0.746 0.483,0.245 0.966,0.485 1.449,0.721 0.483,0.236 0.966,0.469 1.449,0.697 0.483,0.229 0.966,0.454 1.449,0.676 0.483,0.221 0.966,0.44 1.4489,0.655 0.483,0.215 0.966,0.427 1.449,0.635 0.483,0.209 0.966,0.415 1.449,0.618 0.483,0.203 0.966,0.404 1.449,0.601 0.483,0.198 0.966,0.393 1.449,0.585 0.483002,0.192 0.966002,0.382 1.449002,0.57 0.483,0.187 0.966,0.372 1.449,0.555 0.483,0.183 0.966,0.364 1.448997,0.542 0.483,0.179 0.966,0.355 1.449,0.53 0.483,0.174 0.966,0.346 1.449,0.517 0.483,0.17 0.966,0.338 1.449,0.505 0.483,0.166 0.966,0.331 1.449,0.494 0.483,0.163 0.966,0.324 1.449,0.484 0.483,0.159 0.966,0.317 1.449,0.473 0.483,0.156 0.966,0.311 1.449,0.464 0.483,0.153 0.966,0.305 1.4489,0.455 0.483,0.15 0.966,0.298 1.449,0.445 0.483,0.147 0.966,0.293 1.449,0.437 0.483,0.145 0.966,0.288 1.449,0.429 0.483,0.142 0.966,0.282 1.449,0.421 0.483,0.139 0.966,0.277 1.449,0.413 0.483,0.137 0.966,0.272 1.449,0.407 0.483,0.134 0.966,0.267 1.449,0.399 0.483,0.131 0.966,0.262 1.449,0.392 0.483,0.129 0.966,0.258 1.449,0.385 0.483,0.128 0.966,0.254 1.449,0.38 0.483,0.125 0.966,0.249 1.449,0.373 0.483,0.123 0.966,0.245 1.449,0.367 0.483,0.121 0.966,0.242 1.449,0.361 0.483,0.12 0.966,0.239 1.449,0.356 0.483,0.118 0.966,0.235 1.4489,0.351 0.483,0.116 0.966,0.231 1.449,0.345 0.483,0.114 0.966,0.228 1.449,0.34 0.483,0.113 0.966,0.225 1.449,0.336 0.483,0.11 0.966,0.221 1.449,0.33 0.483,0.109 0.966,0.218 1.449,0.326 0.483,0.108 0.966,0.215 1.449,0.321 0.4832,0.107 0.9662,0.212 1.4492,0.317 0.483,0.105 0.966,0.209 1.449,0.313 0.483,0.104 0.966,0.206 1.449,0.309 0.483,0.102 0.966,0.203 1.449,0.304 0.483,0.101 0.966,0.201 1.449,0.301 0.483,0.099 0.966,0.198 1.449,0.296 0.483,0.099 0.966,0.196 1.449,0.293 0.483,0.098 0.966,0.194 1.449,0.29"
       id="path13018"
       inkscape:export-filename="C:\Users\mrmal\Desktop\Apunte Acústica\PNG\LT.png"
       inkscape:export-xdpi="300"
       inkscape:export-ydpi="300" />
    <path
       style="fill:none;stroke:#000000;stroke-width:0.3;stroke-linecap:round;stroke-linejoin:round;stroke-miterlimit:4;stroke-dasharray:none;stroke-opacity:1;paint-order:markers fill stroke"
       d="M 27.932231,112.9906 V 7.0094"
       id="path13016"
       inkscape:export-filename="C:\Users\mrmal\Desktop\Apunte Acústica\PNG\LT.png"
       inkscape:export-xdpi="300"
       inkscape:export-ydpi="300" />
    <path
       style="fill:none;stroke:#000000;stroke-width:0.3;stroke-linecap:round;stroke-linejoin:round;stroke-opacity:1;paint-order:markers fill stroke"
       d="M 27.932231,60 H 154.09657"
       id="path11912"
       inkscape:export-filename="C:\Users\mrmal\Desktop\Apunte Acústica\PNG\LT.png"
       inkscape:export-xdpi="300"
       inkscape:export-ydpi="300" />
    <path
       style="fill:none;stroke:#000000;stroke-width:0.3;stroke-linecap:round;stroke-linejoin:round;stroke-miterlimit:4;stroke-dasharray:none;stroke-opacity:1;paint-order:markers fill stroke"
       d="m 27.932231,60 c 0.483,0 0.966,-0.018 1.448999,-0.055 0.483,-0.036 0.966,-0.091 1.449,-0.163 0.483,-0.072 0.966,-0.162 1.449,-0.267 0.483,-0.106 0.966,-0.228 1.449,-0.363 0.48296,-0.136 0.96596,-0.286 1.44896,-0.448 0.483,-0.161 0.966,-0.334 1.44899,-0.515 0.483,-0.181 0.966,-0.37 1.449,-0.561 0.48299,-0.192 0.96599,-0.387 1.44899,-0.58 0.483,-0.192 0.966,-0.381 1.44899,-0.56 0.483,-0.179 0.966,-0.348 1.449,-0.499 0.482994,-0.151 0.965992,-0.283 1.44899,-0.39 0.482998,-0.106 0.966,-0.187 1.44899,-0.235 0.483,-0.049 0.966,-0.066 1.449,-0.049 0.48299,0.016 0.96599,0.067 1.44899,0.15 0.483,0.083 0.966,0.198 1.44899,0.34 0.483,0.143 0.966,0.312 1.449,0.501 0.48299,0.19 0.96599,0.4 1.44899,0.624 0.483,0.223 0.966,0.461 1.44902,0.706 0.483,0.245 0.966,0.498 1.449,0.754 0.483,0.257 0.966,0.516 1.449,0.776 0.483,0.26 0.966,0.52 1.449,0.778 0.483,0.259 0.9659,0.515 1.4489,0.767 0.483,0.253 0.966,0.503 1.449,0.748 0.483,0.245 0.966,0.487 1.449,0.723 0.483,0.237 0.966,0.469 1.449,0.696 0.483,0.228 0.966,0.451 1.449,0.669 0.483,0.218 0.966,0.431 1.449,0.64 0.483,0.209 0.966,0.414 1.449,0.614 0.483,0.2 0.966,0.395 1.449,0.587 0.483,0.192 0.966,0.379 1.449,0.563 0.483,0.183 0.966,0.363 1.449,0.539 0.483,0.176 0.966,0.348 1.449,0.517 0.483,0.169 0.966,0.334 1.449,0.496 0.483,0.162 0.966,0.321 1.449,0.477 0.483,0.156 0.966,0.309 1.449,0.459 0.483,0.15 0.966,0.298 1.449,0.442 0.483,0.145 0.9659,0.287 1.4489,0.426 0.483,0.14 0.966,0.277 1.449,0.411 0.483,0.135 0.966,0.267 1.449,0.397 0.483,0.13 0.966,0.258 1.449,0.384 0.483,0.126 0.966,0.25 1.449,0.372 0.483,0.122 0.966,0.242 1.449,0.36 0.483,0.118 0.966,0.234 1.449,0.349 0.483,0.114 0.966,0.227 1.449,0.338 0.483,0.112 0.966,0.221 1.449,0.329 0.483,0.108 0.966,0.215 1.449,0.32 0.483,0.105 0.966,0.209 1.449,0.311 0.483003,0.102 0.966003,0.203 1.449003,0.303 0.483,0.099 0.966,0.198 1.449,0.295 0.483,0.097 0.966,0.193 1.448997,0.287 0.483,0.095 0.966,0.188 1.449,0.28 0.483,0.093 0.9659,0.184 1.4489,0.274 0.483,0.09 0.966,0.179 1.449,0.267 0.483,0.088 0.966,0.175 1.449,0.261 0.483,0.086 0.966,0.171 1.449,0.256 0.483,0.084 0.966,0.167 1.449,0.249 0.483,0.083 0.966,0.164 1.449,0.244 0.483,0.081 0.966,0.161 1.449,0.24 0.483,0.079 0.966,0.157 1.449,0.234 0.483,0.077 0.966,0.154 1.449,0.229 0.483,0.076 0.966,0.151 1.449,0.225 0.483,0.075 0.966,0.148 1.449,0.221 0.483,0.073 0.966,0.145 1.449,0.217 0.483,0.071 0.966,0.142 1.449,0.212 0.483,0.07 0.966,0.14 1.449,0.209 0.483,0.069 0.966,0.137 1.449,0.205 0.483,0.067 0.966,0.135 1.4489,0.201 0.483,0.067 0.966,0.133 1.449,0.198 0.483,0.065 0.96599,0.13 1.44899,0.194 0.483,0.065 0.966,0.128 1.449,0.192 0.483,0.063 0.966,0.126 1.449,0.188 0.483,0.062 0.966,0.124 1.449,0.185 0.483,0.061 0.966,0.122 1.449,0.182 0.483,0.061 0.966,0.12 1.449,0.18 0.48299,0.059 0.96599,0.118 1.44899,0.176 0.483,0.059 0.966,0.117 1.449,0.174 0.483,0.058 0.966,0.115 1.449,0.172 0.48301,0.057 0.96601,0.113 1.44901,0.169 0.483,0.056 0.966,0.111 1.449,0.166 0.483,0.055 0.966,0.11 1.4485,0.164 0.483,0.055 0.966,0.109 1.449,0.162 0.483,0.054 0.966,0.107 1.449,0.16 0.483,0.053 0.966,0.105 1.449,0.158 0.483,0.052 0.966,0.103 1.449,0.155 0.483,0.051 0.966,0.103 1.449,0.153 0.483,0.051 0.966,0.102 1.449,0.152 0.483,0.05 0.966,0.1 1.449,0.149"
       id="path13006"
       inkscape:export-filename="C:\Users\mrmal\Desktop\Apunte Acústica\PNG\LT.png"
       inkscape:export-xdpi="300"
       inkscape:export-ydpi="300" />
    <path
       style="fill:none;stroke:#000000;stroke-width:0.3;stroke-linecap:round;stroke-linejoin:round;stroke-miterlimit:4;stroke-dasharray:none;stroke-opacity:1;paint-order:markers fill stroke"
       d="m 27.932231,60 c 0.483,0 0.966,-0.018 1.449,-0.055 0.483,-0.037 0.966,-0.092 1.449,-0.167 0.483,-0.075 0.966,-0.168 1.449,-0.283 0.483,-0.114 0.966,-0.249 1.449,-0.406 0.48297,-0.158 0.96596,-0.337 1.44896,-0.542 0.483,-0.204 0.966,-0.434 1.449,-0.693 0.48299,-0.258 0.96599,-0.546 1.44899,-0.868 0.483,-0.321 0.966,-0.677 1.44899,-1.075 0.483,-0.398 0.966,-0.838 1.449,-1.33 0.48299,-0.493 0.96599,-1.039 1.44899,-1.653 0.482997,-0.615 0.965995,-1.298 1.448993,-2.074 0.482998,-0.775 0.965997,-1.644 1.448997,-2.629 0.48299,-0.986 0.96599,-2.097 1.44899,-3.3 0.483,-1.203 0.966,-2.537 1.44899,-3.565 0.483,-1.028 0.966,-1.608 1.449,-1.167 0.48299,0.441 0.96599,1.79 1.44899,3.24 0.483,1.45 0.966,2.984 1.44899,4.375 0.483,1.391 0.966,2.666 1.44902,3.83 0.483,1.163 0.966,2.218 1.449,3.191 0.483,0.973 0.966,1.864 1.449,2.694 0.483,0.83 0.966,1.599 1.449,2.322 0.483,0.723 0.966,1.399 1.4489,2.039 0.483,0.641 0.966,1.244 1.449,1.819 0.483,0.574 0.966,1.12 1.449,1.641 0.483,0.522 0.966,1.019 1.449,1.497 0.483,0.478 0.966,0.936 1.449,1.376 0.483,0.441 0.966,0.865 1.449,1.275 0.483,0.409 0.966,0.804 1.449,1.187 0.483,0.382 0.966,0.752 1.449,1.111 0.483,0.358 0.966,0.706 1.449,1.044 0.483,0.338 0.966,0.666 1.449,0.985 0.483,0.319 0.966,0.629 1.449,0.932 0.483,0.303 0.966,0.597 1.449,0.885 0.483,0.287 0.966,0.568 1.449,0.842 0.483,0.274 0.966,0.541 1.449,0.803 0.483,0.261 0.966,0.517 1.449,0.767 0.483,0.25 0.966,0.495 1.449,0.734 0.4829,0.24 0.9659,0.475 1.4489,0.705 0.483,0.23 0.966,0.455 1.449,0.676 0.483,0.221 0.966,0.438 1.449,0.651 0.483,0.213 0.966,0.421 1.449,0.626 0.483,0.205 0.966,0.407 1.449,0.604 0.483,0.198 0.966,0.392 1.449,0.583 0.483,0.191 0.966,0.379 1.449,0.564 0.483,0.184 0.966,0.366 1.449,0.544 0.483,0.179 0.966,0.354 1.449,0.527 0.483,0.173 0.966,0.343 1.449,0.511 0.483002,0.168 0.966002,0.332 1.449002,0.495 0.483,0.162 0.966,0.322 1.449,0.48 0.483,0.158 0.966,0.313 1.448997,0.466 0.483,0.154 0.966,0.304 1.449,0.453 0.483,0.149 0.966,0.296 1.449,0.441 0.4829,0.144 0.9659,0.287 1.4489,0.428 0.483,0.14 0.966,0.279 1.449,0.416 0.483,0.137 0.966,0.273 1.449,0.406 0.483,0.134 0.966,0.265 1.449,0.395 0.483,0.13 0.966,0.259 1.449,0.386 0.483,0.126 0.966,0.252 1.449,0.375 0.483,0.124 0.966,0.246 1.449,0.367 0.483,0.121 0.966,0.24 1.449,0.358 0.483,0.117 0.966,0.234 1.449,0.349 0.483,0.115 0.966,0.229 1.449,0.341 0.483,0.112 0.966,0.224 1.449,0.333 0.483,0.11 0.966,0.219 1.449,0.326 0.483,0.108 0.966,0.214 1.449,0.319 0.483,0.105 0.966,0.209 1.449,0.312 0.483,0.103 0.966,0.204 1.449,0.305 0.4829,0.101 0.9659,0.2 1.4489,0.299 0.483,0.098 0.966,0.196 1.449,0.292 0.483,0.097 0.966,0.192 1.449,0.287 0.483,0.094 0.966,0.188 1.449,0.28 0.483,0.093 0.966,0.185 1.449,0.275 0.483,0.091 0.966,0.181 1.449,0.27 0.483,0.089 0.96599,0.177 1.44899,0.265 0.483,0.087 0.966,0.174 1.449,0.259 0.483,0.086 0.966,0.171 1.449,0.255 0.483,0.084 0.966,0.167 1.449,0.25 0.48301,0.082 0.96601,0.164 1.44901,0.245 0.483,0.081 0.966,0.161 1.449,0.241 0.483,0.08 0.966,0.158 1.4485,0.237 0.483,0.078 0.966,0.155 1.449,0.232 0.483,0.077 0.966,0.153 1.449,0.228 0.483,0.076 0.966,0.151 1.449,0.225 0.483,0.074 0.966,0.148 1.449,0.221 0.483,0.073 0.966,0.145 1.449,0.217 l 1.449,0.213 c 0.483,0.071 0.966,0.141 1.449,0.21"
       id="path13012"
       inkscape:export-filename="C:\Users\mrmal\Desktop\Apunte Acústica\PNG\LT.png"
       inkscape:export-xdpi="300"
       inkscape:export-ydpi="300" />
    <circle
       style="fill:#000000;fill-opacity:1;fill-rule:nonzero;stroke:none;stroke-width:0.3;stroke-linecap:round;stroke-linejoin:round;stroke-miterlimit:4;stroke-dasharray:none;stroke-dashoffset:0;stroke-opacity:0.959839"
       id="path1353-4-5-5-1-7"
       cx="58.36113"
       cy="59.944012"
       r="1"
       inkscape:export-filename="C:\Users\mrmal\Desktop\Apunte Acústica\PNG\LT.png"
       inkscape:export-xdpi="300"
       inkscape:export-ydpi="300" />
    <path
       style="fill:none;stroke:#000000;stroke-width:0.1;stroke-linecap:round;stroke-linejoin:miter;stroke-miterlimit:4;stroke-dasharray:0.8, 0.8;stroke-dashoffset:0;stroke-opacity:1"
       d="m 44.359939,59.29932 c 0,0 4.851754,-6.45899 4.851754,-19.32627 0,-12.86727 0.241475,-32.84703 0.241475,-32.84703"
       id="path1404"
       inkscape:export-filename="C:\Users\mrmal\Desktop\Apunte Acústica\PNG\LT.png"
       inkscape:export-xdpi="300"
       inkscape:export-ydpi="300" />
    <text
       xml:space="preserve"
       style="font-style:normal;font-weight:normal;font-size:4.05209px;line-height:1.25;font-family:sans-serif;fill:#000000;fill-opacity:1;stroke:none;stroke-width:0.264583"
       x="60.736423"
       y="56.610641"
       id="text4965"><tspan
         sodipodi:role="line"
         id="tspan4963"
         style="stroke-width:0.264583"
         x="60.736423"
         y="56.610641"
         dy="0 0 0 0 0 0 0 0 0 0 0 0.32035074">$r=\sqrt{2}$</tspan></text>
    <text
       xml:space="preserve"
       style="font-style:normal;font-weight:normal;font-size:4.05209px;line-height:1.25;font-family:sans-serif;fill:#000000;fill-opacity:1;stroke:none;stroke-width:0.264583"
       x="145.40308"
       y="56.610641"
       id="text5421"><tspan
         sodipodi:role="line"
         id="tspan5419"
         style="stroke-width:0.264583"
         x="145.40308"
         y="56.610641"
         dy="0 0 0.32035074">$r$</tspan></text>
    <text
       xml:space="preserve"
       style="font-style:normal;font-weight:normal;font-size:4.05209px;line-height:1.25;font-family:sans-serif;fill:#000000;fill-opacity:1;stroke:none;stroke-width:0.264583"
       x="13.559246"
       y="13.87114"
       id="text5421-5"><tspan
         sodipodi:role="line"
         id="tspan5419-3"
         style="stroke-width:0.264583"
         x="13.559246"
         y="13.87114"
         dy="0 0 0 0 0 0 0 0.32035074">$L_T(r)$</tspan></text>
    <text
       xml:space="preserve"
       style="font-style:normal;font-weight:normal;font-size:4.05209px;line-height:1.25;font-family:sans-serif;fill:#000000;fill-opacity:1;stroke:none;stroke-width:0.264583"
       x="122.12446"
       y="73.555458"
       id="text5421-5-1"><tspan
         sodipodi:role="line"
         id="tspan5419-3-1"
         style="stroke-width:0.264583"
         x="122.12446"
         y="73.555458"
         dy="0 0 0 0 0 0 0 0 0.041452046">$\xi=0.5$</tspan></text>
    <text
       xml:space="preserve"
       style="font-style:normal;font-weight:normal;font-size:4.05209px;line-height:1.25;font-family:sans-serif;fill:#000000;fill-opacity:1;stroke:none;stroke-width:0.264583"
       x="122.12446"
       y="89.43045"
       id="text6963"><tspan
         sodipodi:role="line"
         id="tspan6961"
         style="stroke-width:0.264583"
         x="122.12446"
         y="89.43045"
         dy="0 0 0 0 0 0 0 0 0.041452046">$\xi=0.1$</tspan></text>
    <text
       xml:space="preserve"
       style="font-style:normal;font-weight:normal;font-size:4.05209px;line-height:1.25;font-family:sans-serif;fill:#000000;fill-opacity:1;stroke:none;stroke-width:0.264583"
       x="122.12446"
       y="105.30544"
       id="text7069"><tspan
         sodipodi:role="line"
         id="tspan7067"
         style="stroke-width:0.264583"
         x="122.12446"
         y="105.30544"
         dy="0 0 0 0 0 0 0 0 0 0.041452046">$\xi=0.01$</tspan></text>
  </g>
</svg>
